<svg xmlns="http://www.w3.org/2000/svg" width="38" height="42" viewBox="0 0 38 42" fill="none">
  <g clip-path="url(#clip0_1_87)">
    <path d="M13.4354 1.96875C13.4354 0.877734 12.5517 0 11.4533 0C10.3548 0 9.47112 0.877734 9.47112 1.96875V5.25H6.16755C3.25215 5.25 0.881836 7.6043 0.881836 10.5V11.8125V15.75V36.75C0.881836 39.6457 3.25215 42 6.16755 42H32.5961C35.5115 42 37.8818 39.6457 37.8818 36.75V15.75V11.8125V10.5C37.8818 7.6043 35.5115 5.25 32.5961 5.25H29.2925V1.96875C29.2925 0.877734 28.4088 0 27.3104 0C26.212 0 25.3283 0.877734 25.3283 1.96875V5.25H13.4354V1.96875ZM4.84612 15.75H11.4533V20.3438H4.84612V15.75ZM4.84612 24.2812H11.4533V29.5312H4.84612V24.2812ZM15.4176 24.2812H23.3461V29.5312H15.4176V24.2812ZM27.3104 24.2812H33.9175V29.5312H27.3104V24.2812ZM33.9175 20.3438H27.3104V15.75H33.9175V20.3438ZM33.9175 33.4688V36.75C33.9175 37.4719 33.3229 38.0625 32.5961 38.0625H27.3104V33.4688H33.9175ZM23.3461 33.4688V38.0625H15.4176V33.4688H23.3461ZM11.4533 33.4688V38.0625H6.16755C5.44076 38.0625 4.84612 37.4719 4.84612 36.75V33.4688H11.4533ZM23.3461 20.3438H15.4176V15.75H23.3461V20.3438Z" fill="#4E4E58"/>
  </g>
  <defs>
    <clipPath id="clip0_1_87">
      <rect width="37" height="42" fill="white" transform="translate(0.881836)"/>
    </clipPath>
  </defs>
</svg>