<svg xmlns="http://www.w3.org/2000/svg" width="47" height="41" viewBox="0 0 47 41" fill="none">
  <g clip-path="url(#clip0_1_124)">
    <path d="M46.9755 20.46C46.9755 21.9014 45.7516 23.0305 44.3644 23.0305H41.7533L41.8104 35.859C41.8104 36.0752 41.7941 36.2914 41.7696 36.5076V37.8049C41.7696 39.5746 40.309 41.008 38.5057 41.008H37.2002C37.1104 41.008 37.0207 41.008 36.9309 41C36.8167 41.008 36.7024 41.008 36.5882 41.008L33.9363 41H31.978C30.1747 41 28.7141 39.5666 28.7141 37.7969V35.875V30.75C28.7141 29.3326 27.5472 28.1875 26.103 28.1875H20.8807C19.4365 28.1875 18.2696 29.3326 18.2696 30.75V35.875V37.7969C18.2696 39.5666 16.809 41 15.0057 41H13.0474H10.4444C10.322 41 10.1997 40.992 10.0773 40.984C9.97934 40.992 9.88142 41 9.78351 41H8.47795C6.67465 41 5.21406 39.5666 5.21406 37.7969V28.8281C5.21406 28.7561 5.21406 28.676 5.22222 28.6039V23.0225H2.61111C1.14236 23.0225 0 21.9014 0 20.452C0 19.7312 0.244792 19.0906 0.815972 18.5301L21.7293 0.640625C22.3005 0.0800781 22.9533 0 23.5245 0C24.0957 0 24.7484 0.160156 25.238 0.560547L46.078 18.5381C46.7307 19.0986 47.0571 19.7393 46.9755 20.46Z" fill="#4E4E58"/>
  </g>
  <defs>
    <clipPath id="clip0_1_124">
      <rect width="47" height="41" fill="white"/>
    </clipPath>
  </defs>
</svg>