<svg xmlns="http://www.w3.org/2000/svg" width="27" height="31" viewBox="0 0 27 31" fill="none">
  <path d="M13.5 15.5C15.546 15.5 17.5081 14.6835 18.9548 13.2301C20.4015 11.7767 21.2143 9.80543 21.2143 7.75C21.2143 5.69457 20.4015 3.72333 18.9548 2.26992C17.5081 0.816516 15.546 0 13.5 0C11.454 0 9.49189 0.816516 8.04518 2.26992C6.59847 3.72333 5.78571 5.69457 5.78571 7.75C5.78571 9.80543 6.59847 11.7767 8.04518 13.2301C9.49189 14.6835 11.454 15.5 13.5 15.5ZM10.7458 18.4062C4.80938 18.4062 0 23.2379 0 29.2018C0 30.1947 0.801563 31 1.78996 31H25.21C26.1984 31 27 30.1947 27 29.2018C27 23.2379 22.1906 18.4062 16.2542 18.4062H10.7458Z" fill="black" fill-opacity="0.58"/>
</svg>