<svg width="519" height="543" viewBox="0 0 519 543" fill="none" xmlns="http://www.w3.org/2000/svg">
<g opacity="0.7" filter="url(#filter0_d_0_1)">
<path d="M147.16 292.441C155.115 267.409 187.676 261.202 204.282 281.551L219.921 300.716L234.794 314.846C256.431 335.403 241.906 371.841 212.06 371.874L195.845 371.892C191.937 371.897 188.061 372.594 184.396 373.952L172.495 378.361C144.564 388.71 118.266 359.741 131.261 332.938L139.017 316.94C139.708 315.514 140.296 314.04 140.776 312.53L147.16 292.441Z" fill="#D9D9D9"/>
<path d="M131.818 283.991C136.597 297.121 133.943 310.142 125.889 313.073C117.836 316.005 107.433 307.736 102.653 294.606C97.8743 281.475 100.529 268.454 108.582 265.523C116.636 262.592 127.039 270.86 131.818 283.991Z" fill="#D9D9D9"/>
<path d="M161.306 236.782C164.851 250.011 160.138 262.767 150.78 265.274C141.422 267.782 130.962 259.091 127.417 245.863C123.873 232.635 128.586 219.878 137.944 217.371C147.302 214.863 157.762 223.554 161.306 236.782Z" fill="#D9D9D9"/>
<path d="M249.423 263.245C249.423 277.219 242.476 288.546 233.905 288.546C225.335 288.546 218.387 277.219 218.387 263.245C218.387 249.272 225.335 237.944 233.905 237.944C242.476 237.944 249.423 249.272 249.423 263.245Z" fill="#D9D9D9"/>
<path d="M205.843 232.629C207.065 246.596 200.231 258.603 190.58 259.447C180.929 260.291 172.114 249.654 170.892 235.687C169.67 221.721 176.504 209.714 186.155 208.87C195.806 208.025 204.621 218.663 205.843 232.629Z" fill="#D9D9D9"/>
<path d="M310.136 167.034C329.541 149.333 360.843 160.238 365.049 186.164L369.011 210.581L374.826 230.254C383.287 258.875 352.488 283.169 326.624 268.275L312.573 260.183C309.186 258.233 305.48 256.899 301.628 256.243L289.117 254.111C259.753 249.107 251.463 210.871 276.118 194.156L290.834 184.179C292.146 183.29 293.392 182.308 294.562 181.24L310.136 167.034Z" fill="#D9D9D9"/>
<path d="M301.074 152.045C298.648 165.806 289.839 175.755 281.399 174.267C272.958 172.779 268.083 160.417 270.51 146.655C272.936 132.894 281.745 122.945 290.186 124.433C298.626 125.922 303.501 138.284 301.074 152.045Z" fill="#D9D9D9"/>
<path d="M350.216 125.905C346.672 139.133 336.212 147.824 326.854 145.317C317.496 142.809 312.783 130.053 316.328 116.825C319.872 103.596 330.332 94.9055 339.69 97.413C349.048 99.9205 353.761 112.677 350.216 125.905Z" fill="#D9D9D9"/>
<path d="M413.296 192.882C406.31 204.983 394.629 211.319 387.207 207.034C379.785 202.749 379.432 189.465 386.418 177.364C393.405 165.262 405.086 158.926 412.508 163.211C419.93 167.496 420.283 180.78 413.296 192.882Z" fill="#D9D9D9"/>
<path d="M390.863 144.577C384.937 157.284 373.016 164.265 364.236 160.171C355.455 156.076 353.14 142.456 359.065 129.75C364.991 117.044 376.912 110.062 385.692 114.157C394.473 118.251 396.788 131.871 390.863 144.577Z" fill="#D9D9D9"/>
</g>
<g filter="url(#filter1_di_0_1)">
<mask id="path-11-outside-1_0_1" maskUnits="userSpaceOnUse" x="81" y="471" width="371" height="65" fill="black">
<rect fill="white" x="81" y="471" width="371" height="65"/>
<path d="M85.961 535C83.945 535 82.937 533.992 82.937 531.976V475.096C82.937 473.08 83.945 472.072 85.961 472.072H108.425C114.025 472.072 118.281 473.528 121.193 476.44C124.105 479.352 125.561 483.608 125.561 489.208V492.088C125.561 497.656 124.105 501.912 121.193 504.856C118.281 507.768 114.025 509.224 108.425 509.224H88.985V531.976C88.985 533.992 87.977 535 85.961 535ZM88.985 503.176H108.425C112.361 503.176 115.193 502.312 116.921 500.584C118.649 498.824 119.513 495.992 119.513 492.088V489.208C119.513 485.304 118.649 482.488 116.921 480.76C115.193 479 112.361 478.12 108.425 478.12H88.985V503.176ZM140.978 514.168V517.288C140.978 521.672 141.826 524.712 143.522 526.408C145.25 528.104 148.322 528.952 152.738 528.952H160.61C164.418 528.952 167.186 528.504 168.914 527.608C170.674 526.712 171.746 525.16 172.13 522.952C172.354 521.992 172.706 521.272 173.186 520.792C173.666 520.312 174.386 520.072 175.346 520.072C176.338 520.072 177.09 520.344 177.602 520.888C178.146 521.4 178.338 522.168 178.178 523.192C177.666 527.192 175.954 530.168 173.042 532.12C170.162 534.04 166.018 535 160.61 535H152.738C146.626 535 142.13 533.56 139.25 530.68C136.37 527.8 134.93 523.336 134.93 517.288V506.344C134.93 500.136 136.37 495.608 139.25 492.76C142.13 489.88 146.626 488.472 152.738 488.536H160.61C166.754 488.536 171.25 489.976 174.098 492.856C176.978 495.704 178.418 500.2 178.418 506.344V511.144C178.418 513.16 177.41 514.168 175.394 514.168H140.978ZM152.738 494.584C148.322 494.52 145.25 495.336 143.522 497.032C141.826 498.728 140.978 501.832 140.978 506.344V508.12H172.37V506.344C172.37 501.896 171.522 498.824 169.826 497.128C168.13 495.432 165.058 494.584 160.61 494.584H152.738ZM212.762 535C206.714 535 202.282 533.592 199.466 530.776C196.65 527.96 195.242 523.56 195.242 517.576V494.584H189.866C187.85 494.584 186.842 493.576 186.842 491.56C186.842 489.544 187.85 488.536 189.866 488.536H195.242V479.32C195.242 477.304 196.25 476.296 198.266 476.296C200.282 476.296 201.29 477.304 201.29 479.32V488.536H213.002C215.018 488.536 216.026 489.544 216.026 491.56C216.026 493.576 215.018 494.584 213.002 494.584H201.29V517.576C201.29 521.896 202.122 524.872 203.786 526.504C205.45 528.136 208.442 528.952 212.762 528.952C213.818 528.952 214.586 529.208 215.066 529.72C215.578 530.2 215.834 530.952 215.834 531.976C215.834 533.992 214.81 535 212.762 535ZM229.457 535C227.409 535 226.385 533.992 226.385 531.976C226.385 531.496 226.497 531.032 226.721 530.584C226.945 530.136 227.265 529.608 227.681 529L266.945 477.16V478.12H239.633C237.105 478.12 235.169 478.584 233.825 479.512C232.481 480.408 231.617 481.88 231.233 483.928C231.073 484.856 230.753 485.576 230.273 486.088C229.793 486.568 229.057 486.808 228.065 486.808C227.105 486.808 226.337 486.536 225.761 485.992C225.217 485.416 225.009 484.632 225.137 483.64C225.681 479.864 227.169 477 229.601 475.048C232.065 473.064 235.409 472.072 239.633 472.072H271.505C273.521 472.072 274.529 473.08 274.529 475.096C274.529 475.64 274.449 476.152 274.289 476.632C274.129 477.112 273.809 477.656 273.329 478.264L234.257 530.056V528.952H263.153C265.777 528.952 267.761 528.504 269.105 527.608C270.449 526.68 271.281 525.192 271.601 523.144C271.825 522.184 272.177 521.464 272.657 520.984C273.137 520.504 273.841 520.264 274.769 520.264C275.793 520.264 276.577 520.536 277.121 521.08C277.665 521.624 277.873 522.408 277.745 523.432C276.689 531.144 271.825 535 263.153 535H229.457ZM305.832 535C299.72 535 295.224 533.56 292.344 530.68C289.464 527.8 288.024 523.336 288.024 517.288V506.344C288.024 500.168 289.464 495.656 292.344 492.808C295.224 489.928 299.72 488.504 305.832 488.536H313.704C319.848 488.536 324.344 489.976 327.192 492.856C330.072 495.704 331.512 500.2 331.512 506.344V517.192C331.512 523.304 330.072 527.8 327.192 530.68C324.344 533.56 319.848 535 313.704 535H305.832ZM294.072 517.288C294.072 521.672 294.92 524.712 296.616 526.408C298.344 528.104 301.416 528.952 305.832 528.952H313.704C318.152 528.952 321.224 528.104 322.92 526.408C324.616 524.68 325.464 521.608 325.464 517.192V506.344C325.464 501.896 324.616 498.824 322.92 497.128C321.224 495.432 318.152 494.584 313.704 494.584H305.832C302.888 494.552 300.552 494.904 298.824 495.64C297.128 496.344 295.912 497.56 295.176 499.288C294.44 500.984 294.072 503.336 294.072 506.344V517.288ZM351.555 535C349.539 535 348.531 533.992 348.531 531.976V491.56C348.531 489.544 349.539 488.536 351.555 488.536C353.571 488.536 354.579 489.544 354.579 491.56V495.112C357.747 490.728 363.075 488.536 370.563 488.536H373.251C379.395 488.536 383.891 489.976 386.739 492.856C389.619 495.704 391.059 500.2 391.059 506.344V531.976C391.059 533.992 390.051 535 388.035 535C386.019 535 385.011 533.992 385.011 531.976V506.344C385.011 501.896 384.147 498.824 382.419 497.128C380.723 495.432 377.667 494.584 373.251 494.584H370.563C365.987 494.584 362.275 495.256 359.427 496.6C356.579 497.944 354.963 500.04 354.579 502.888V531.976C354.579 533.992 353.571 535 351.555 535ZM413.228 514.168V517.288C413.228 521.672 414.076 524.712 415.772 526.408C417.5 528.104 420.572 528.952 424.988 528.952H432.86C436.668 528.952 439.436 528.504 441.164 527.608C442.924 526.712 443.996 525.16 444.38 522.952C444.604 521.992 444.956 521.272 445.436 520.792C445.916 520.312 446.636 520.072 447.596 520.072C448.588 520.072 449.34 520.344 449.852 520.888C450.396 521.4 450.588 522.168 450.428 523.192C449.916 527.192 448.204 530.168 445.292 532.12C442.412 534.04 438.268 535 432.86 535H424.988C418.876 535 414.38 533.56 411.5 530.68C408.62 527.8 407.18 523.336 407.18 517.288V506.344C407.18 500.136 408.62 495.608 411.5 492.76C414.38 489.88 418.876 488.472 424.988 488.536H432.86C439.004 488.536 443.5 489.976 446.348 492.856C449.228 495.704 450.668 500.2 450.668 506.344V511.144C450.668 513.16 449.66 514.168 447.644 514.168H413.228ZM424.988 494.584C420.572 494.52 417.5 495.336 415.772 497.032C414.076 498.728 413.228 501.832 413.228 506.344V508.12H444.62V506.344C444.62 501.896 443.772 498.824 442.076 497.128C440.38 495.432 437.308 494.584 432.86 494.584H424.988Z"/>
</mask>
<path d="M85.961 535C83.945 535 82.937 533.992 82.937 531.976V475.096C82.937 473.08 83.945 472.072 85.961 472.072H108.425C114.025 472.072 118.281 473.528 121.193 476.44C124.105 479.352 125.561 483.608 125.561 489.208V492.088C125.561 497.656 124.105 501.912 121.193 504.856C118.281 507.768 114.025 509.224 108.425 509.224H88.985V531.976C88.985 533.992 87.977 535 85.961 535ZM88.985 503.176H108.425C112.361 503.176 115.193 502.312 116.921 500.584C118.649 498.824 119.513 495.992 119.513 492.088V489.208C119.513 485.304 118.649 482.488 116.921 480.76C115.193 479 112.361 478.12 108.425 478.12H88.985V503.176ZM140.978 514.168V517.288C140.978 521.672 141.826 524.712 143.522 526.408C145.25 528.104 148.322 528.952 152.738 528.952H160.61C164.418 528.952 167.186 528.504 168.914 527.608C170.674 526.712 171.746 525.16 172.13 522.952C172.354 521.992 172.706 521.272 173.186 520.792C173.666 520.312 174.386 520.072 175.346 520.072C176.338 520.072 177.09 520.344 177.602 520.888C178.146 521.4 178.338 522.168 178.178 523.192C177.666 527.192 175.954 530.168 173.042 532.12C170.162 534.04 166.018 535 160.61 535H152.738C146.626 535 142.13 533.56 139.25 530.68C136.37 527.8 134.93 523.336 134.93 517.288V506.344C134.93 500.136 136.37 495.608 139.25 492.76C142.13 489.88 146.626 488.472 152.738 488.536H160.61C166.754 488.536 171.25 489.976 174.098 492.856C176.978 495.704 178.418 500.2 178.418 506.344V511.144C178.418 513.16 177.41 514.168 175.394 514.168H140.978ZM152.738 494.584C148.322 494.52 145.25 495.336 143.522 497.032C141.826 498.728 140.978 501.832 140.978 506.344V508.12H172.37V506.344C172.37 501.896 171.522 498.824 169.826 497.128C168.13 495.432 165.058 494.584 160.61 494.584H152.738ZM212.762 535C206.714 535 202.282 533.592 199.466 530.776C196.65 527.96 195.242 523.56 195.242 517.576V494.584H189.866C187.85 494.584 186.842 493.576 186.842 491.56C186.842 489.544 187.85 488.536 189.866 488.536H195.242V479.32C195.242 477.304 196.25 476.296 198.266 476.296C200.282 476.296 201.29 477.304 201.29 479.32V488.536H213.002C215.018 488.536 216.026 489.544 216.026 491.56C216.026 493.576 215.018 494.584 213.002 494.584H201.29V517.576C201.29 521.896 202.122 524.872 203.786 526.504C205.45 528.136 208.442 528.952 212.762 528.952C213.818 528.952 214.586 529.208 215.066 529.72C215.578 530.2 215.834 530.952 215.834 531.976C215.834 533.992 214.81 535 212.762 535ZM229.457 535C227.409 535 226.385 533.992 226.385 531.976C226.385 531.496 226.497 531.032 226.721 530.584C226.945 530.136 227.265 529.608 227.681 529L266.945 477.16V478.12H239.633C237.105 478.12 235.169 478.584 233.825 479.512C232.481 480.408 231.617 481.88 231.233 483.928C231.073 484.856 230.753 485.576 230.273 486.088C229.793 486.568 229.057 486.808 228.065 486.808C227.105 486.808 226.337 486.536 225.761 485.992C225.217 485.416 225.009 484.632 225.137 483.64C225.681 479.864 227.169 477 229.601 475.048C232.065 473.064 235.409 472.072 239.633 472.072H271.505C273.521 472.072 274.529 473.08 274.529 475.096C274.529 475.64 274.449 476.152 274.289 476.632C274.129 477.112 273.809 477.656 273.329 478.264L234.257 530.056V528.952H263.153C265.777 528.952 267.761 528.504 269.105 527.608C270.449 526.68 271.281 525.192 271.601 523.144C271.825 522.184 272.177 521.464 272.657 520.984C273.137 520.504 273.841 520.264 274.769 520.264C275.793 520.264 276.577 520.536 277.121 521.08C277.665 521.624 277.873 522.408 277.745 523.432C276.689 531.144 271.825 535 263.153 535H229.457ZM305.832 535C299.72 535 295.224 533.56 292.344 530.68C289.464 527.8 288.024 523.336 288.024 517.288V506.344C288.024 500.168 289.464 495.656 292.344 492.808C295.224 489.928 299.72 488.504 305.832 488.536H313.704C319.848 488.536 324.344 489.976 327.192 492.856C330.072 495.704 331.512 500.2 331.512 506.344V517.192C331.512 523.304 330.072 527.8 327.192 530.68C324.344 533.56 319.848 535 313.704 535H305.832ZM294.072 517.288C294.072 521.672 294.92 524.712 296.616 526.408C298.344 528.104 301.416 528.952 305.832 528.952H313.704C318.152 528.952 321.224 528.104 322.92 526.408C324.616 524.68 325.464 521.608 325.464 517.192V506.344C325.464 501.896 324.616 498.824 322.92 497.128C321.224 495.432 318.152 494.584 313.704 494.584H305.832C302.888 494.552 300.552 494.904 298.824 495.64C297.128 496.344 295.912 497.56 295.176 499.288C294.44 500.984 294.072 503.336 294.072 506.344V517.288ZM351.555 535C349.539 535 348.531 533.992 348.531 531.976V491.56C348.531 489.544 349.539 488.536 351.555 488.536C353.571 488.536 354.579 489.544 354.579 491.56V495.112C357.747 490.728 363.075 488.536 370.563 488.536H373.251C379.395 488.536 383.891 489.976 386.739 492.856C389.619 495.704 391.059 500.2 391.059 506.344V531.976C391.059 533.992 390.051 535 388.035 535C386.019 535 385.011 533.992 385.011 531.976V506.344C385.011 501.896 384.147 498.824 382.419 497.128C380.723 495.432 377.667 494.584 373.251 494.584H370.563C365.987 494.584 362.275 495.256 359.427 496.6C356.579 497.944 354.963 500.04 354.579 502.888V531.976C354.579 533.992 353.571 535 351.555 535ZM413.228 514.168V517.288C413.228 521.672 414.076 524.712 415.772 526.408C417.5 528.104 420.572 528.952 424.988 528.952H432.86C436.668 528.952 439.436 528.504 441.164 527.608C442.924 526.712 443.996 525.16 444.38 522.952C444.604 521.992 444.956 521.272 445.436 520.792C445.916 520.312 446.636 520.072 447.596 520.072C448.588 520.072 449.34 520.344 449.852 520.888C450.396 521.4 450.588 522.168 450.428 523.192C449.916 527.192 448.204 530.168 445.292 532.12C442.412 534.04 438.268 535 432.86 535H424.988C418.876 535 414.38 533.56 411.5 530.68C408.62 527.8 407.18 523.336 407.18 517.288V506.344C407.18 500.136 408.62 495.608 411.5 492.76C414.38 489.88 418.876 488.472 424.988 488.536H432.86C439.004 488.536 443.5 489.976 446.348 492.856C449.228 495.704 450.668 500.2 450.668 506.344V511.144C450.668 513.16 449.66 514.168 447.644 514.168H413.228ZM424.988 494.584C420.572 494.52 417.5 495.336 415.772 497.032C414.076 498.728 413.228 501.832 413.228 506.344V508.12H444.62V506.344C444.62 501.896 443.772 498.824 442.076 497.128C440.38 495.432 437.308 494.584 432.86 494.584H424.988Z" fill="#D9D9D9"/>
<path d="M121.193 476.44L120.486 477.147L121.193 476.44ZM121.193 504.856L121.9 505.563L121.904 505.559L121.193 504.856ZM88.985 509.224V508.224H87.985V509.224H88.985ZM88.985 503.176H87.985V504.176H88.985V503.176ZM116.921 500.584L117.628 501.291L117.635 501.285L116.921 500.584ZM116.921 480.76L116.207 481.461L116.214 481.467L116.921 480.76ZM88.985 478.12V477.12H87.985V478.12H88.985ZM85.961 534C85.1071 534 84.6504 533.787 84.4001 533.537C84.1498 533.287 83.937 532.83 83.937 531.976H81.937C81.937 533.138 82.2282 534.193 82.9859 534.951C83.7436 535.709 84.7989 536 85.961 536V534ZM83.937 531.976V475.096H81.937V531.976H83.937ZM83.937 475.096C83.937 474.242 84.1498 473.785 84.4001 473.535C84.6504 473.285 85.1071 473.072 85.961 473.072V471.072C84.7989 471.072 83.7436 471.363 82.9859 472.121C82.2282 472.879 81.937 473.934 81.937 475.096H83.937ZM85.961 473.072H108.425V471.072H85.961V473.072ZM108.425 473.072C113.858 473.072 117.821 474.482 120.486 477.147L121.9 475.733C118.741 472.574 114.192 471.072 108.425 471.072V473.072ZM120.486 477.147C123.151 479.812 124.561 483.775 124.561 489.208H126.561C126.561 483.441 125.059 478.892 121.9 475.733L120.486 477.147ZM124.561 489.208V492.088H126.561V489.208H124.561ZM124.561 492.088C124.561 497.486 123.152 501.453 120.482 504.153L121.904 505.559C125.058 502.371 126.561 497.826 126.561 492.088H124.561ZM120.486 504.149C117.821 506.814 113.858 508.224 108.425 508.224V510.224C114.192 510.224 118.741 508.722 121.9 505.563L120.486 504.149ZM108.425 508.224H88.985V510.224H108.425V508.224ZM87.985 509.224V531.976H89.985V509.224H87.985ZM87.985 531.976C87.985 532.83 87.7722 533.287 87.5219 533.537C87.2716 533.787 86.8149 534 85.961 534V536C87.1231 536 88.1784 535.709 88.9361 534.951C89.6938 534.193 89.985 533.138 89.985 531.976H87.985ZM88.985 504.176H108.425V502.176H88.985V504.176ZM108.425 504.176C112.471 504.176 115.626 503.294 117.628 501.291L116.214 499.877C114.76 501.33 112.251 502.176 108.425 502.176V504.176ZM117.635 501.285C119.628 499.254 120.513 496.107 120.513 492.088H118.513C118.513 495.877 117.67 498.394 116.207 499.883L117.635 501.285ZM120.513 492.088V489.208H118.513V492.088H120.513ZM120.513 489.208C120.513 485.191 119.629 482.054 117.628 480.053L116.214 481.467C117.669 482.922 118.513 485.417 118.513 489.208H120.513ZM117.635 480.059C115.633 478.02 112.475 477.12 108.425 477.12V479.12C112.247 479.12 114.753 479.98 116.207 481.461L117.635 480.059ZM108.425 477.12H88.985V479.12H108.425V477.12ZM87.985 478.12V503.176H89.985V478.12H87.985ZM140.978 514.168V513.168H139.978V514.168H140.978ZM143.522 526.408L142.815 527.115L142.822 527.122L143.522 526.408ZM168.914 527.608L168.46 526.717L168.454 526.72L168.914 527.608ZM172.13 522.952L171.156 522.725L171.15 522.753L171.145 522.781L172.13 522.952ZM173.186 520.792L172.479 520.085L173.186 520.792ZM177.602 520.888L176.874 521.573L176.895 521.595L176.917 521.616L177.602 520.888ZM178.178 523.192L177.19 523.038L177.188 523.051L177.186 523.065L178.178 523.192ZM173.042 532.12L173.597 532.952L173.599 532.951L173.042 532.12ZM139.25 530.68L138.543 531.387L139.25 530.68ZM139.25 492.76L139.953 493.471L139.957 493.467L139.25 492.76ZM152.738 488.536L152.728 489.536H152.738V488.536ZM174.098 492.856L173.387 493.559L173.395 493.567L174.098 492.856ZM152.738 494.584L152.724 495.584L152.731 495.584H152.738V494.584ZM143.522 497.032L142.822 496.318L142.815 496.325L143.522 497.032ZM140.978 508.12H139.978V509.12H140.978V508.12ZM172.37 508.12V509.12H173.37V508.12H172.37ZM169.826 497.128L169.119 497.835L169.826 497.128ZM139.978 514.168V517.288H141.978V514.168H139.978ZM139.978 517.288C139.978 521.738 140.826 525.127 142.815 527.115L144.229 525.701C142.826 524.297 141.978 521.606 141.978 517.288H139.978ZM142.822 527.122C144.841 529.103 148.255 529.952 152.738 529.952V527.952C148.389 527.952 145.659 527.105 144.222 525.694L142.822 527.122ZM152.738 529.952H160.61V527.952H152.738V529.952ZM160.61 529.952C164.453 529.952 167.424 529.507 169.374 528.496L168.454 526.72C166.948 527.501 164.383 527.952 160.61 527.952V529.952ZM169.368 528.499C171.449 527.44 172.686 525.594 173.115 523.123L171.145 522.781C170.806 524.726 169.899 525.984 168.46 526.717L169.368 528.499ZM173.104 523.179C173.304 522.323 173.592 521.8 173.893 521.499L172.479 520.085C171.82 520.744 171.404 521.661 171.156 522.725L173.104 523.179ZM173.893 521.499C174.119 521.273 174.54 521.072 175.346 521.072V519.072C174.232 519.072 173.213 519.351 172.479 520.085L173.893 521.499ZM175.346 521.072C176.157 521.072 176.607 521.29 176.874 521.573L178.33 520.203C177.573 519.398 176.519 519.072 175.346 519.072V521.072ZM176.917 521.616C177.134 521.821 177.32 522.202 177.19 523.038L179.166 523.346C179.356 522.134 179.158 520.979 178.287 520.16L176.917 521.616ZM177.186 523.065C176.705 526.826 175.12 529.523 172.485 531.289L173.599 532.951C176.788 530.813 178.627 527.558 179.17 523.319L177.186 523.065ZM172.487 531.288C169.84 533.053 165.923 534 160.61 534V536C166.113 536 170.484 535.027 173.597 532.952L172.487 531.288ZM160.61 534H152.738V536H160.61V534ZM152.738 534C146.76 534 142.574 532.589 139.957 529.973L138.543 531.387C141.686 534.531 146.492 536 152.738 536V534ZM139.957 529.973C137.339 527.355 135.93 523.198 135.93 517.288H133.93C133.93 523.474 135.401 528.245 138.543 531.387L139.957 529.973ZM135.93 517.288V506.344H133.93V517.288H135.93ZM135.93 506.344C135.93 500.264 137.344 496.052 139.953 493.471L138.547 492.049C135.396 495.164 133.93 500.008 133.93 506.344H135.93ZM139.957 493.467C142.57 490.854 146.751 489.473 152.728 489.536L152.748 487.536C146.501 487.471 141.69 488.906 138.543 492.053L139.957 493.467ZM152.738 489.536H160.61V487.536H152.738V489.536ZM160.61 489.536C166.623 489.536 170.805 490.948 173.387 493.559L174.809 492.153C171.695 489.004 166.885 487.536 160.61 487.536V489.536ZM173.395 493.567C176.006 496.149 177.418 500.331 177.418 506.344H179.418C179.418 500.069 177.95 495.259 174.801 492.145L173.395 493.567ZM177.418 506.344V511.144H179.418V506.344H177.418ZM177.418 511.144C177.418 511.998 177.205 512.455 176.955 512.705C176.705 512.955 176.248 513.168 175.394 513.168V515.168C176.556 515.168 177.611 514.877 178.369 514.119C179.127 513.361 179.418 512.306 179.418 511.144H177.418ZM175.394 513.168H140.978V515.168H175.394V513.168ZM152.752 493.584C148.269 493.519 144.847 494.331 142.822 496.318L144.222 497.746C145.653 496.341 148.375 495.521 152.724 495.584L152.752 493.584ZM142.815 496.325C140.823 498.317 139.978 501.776 139.978 506.344H141.978C141.978 501.888 142.829 499.139 144.229 497.739L142.815 496.325ZM139.978 506.344V508.12H141.978V506.344H139.978ZM140.978 509.12H172.37V507.12H140.978V509.12ZM173.37 508.12V506.344H171.37V508.12H173.37ZM173.37 506.344C173.37 501.835 172.523 498.411 170.533 496.421L169.119 497.835C170.521 499.237 171.37 501.957 171.37 506.344H173.37ZM170.533 496.421C168.543 494.431 165.119 493.584 160.61 493.584V495.584C164.997 495.584 167.717 496.433 169.119 497.835L170.533 496.421ZM160.61 493.584H152.738V495.584H160.61V493.584ZM199.466 530.776L198.759 531.483L199.466 530.776ZM195.242 494.584H196.242V493.584H195.242V494.584ZM195.242 488.536V489.536H196.242V488.536H195.242ZM201.29 488.536H200.29V489.536H201.29V488.536ZM201.29 494.584V493.584H200.29V494.584H201.29ZM203.786 526.504L203.086 527.218L203.786 526.504ZM215.066 529.72L214.336 530.404L214.359 530.427L214.382 530.45L215.066 529.72ZM212.762 534C206.844 534 202.724 532.62 200.173 530.069L198.759 531.483C201.84 534.564 206.584 536 212.762 536V534ZM200.173 530.069C197.621 527.517 196.242 523.426 196.242 517.576H194.242C194.242 523.694 195.679 528.403 198.759 531.483L200.173 530.069ZM196.242 517.576V494.584H194.242V517.576H196.242ZM195.242 493.584H189.866V495.584H195.242V493.584ZM189.866 493.584C189.012 493.584 188.555 493.371 188.305 493.121C188.055 492.871 187.842 492.414 187.842 491.56H185.842C185.842 492.722 186.133 493.777 186.891 494.535C187.649 495.293 188.704 495.584 189.866 495.584V493.584ZM187.842 491.56C187.842 490.706 188.055 490.249 188.305 489.999C188.555 489.749 189.012 489.536 189.866 489.536V487.536C188.704 487.536 187.649 487.827 186.891 488.585C186.133 489.343 185.842 490.398 185.842 491.56H187.842ZM189.866 489.536H195.242V487.536H189.866V489.536ZM196.242 488.536V479.32H194.242V488.536H196.242ZM196.242 479.32C196.242 478.466 196.455 478.009 196.705 477.759C196.955 477.509 197.412 477.296 198.266 477.296V475.296C197.104 475.296 196.049 475.587 195.291 476.345C194.533 477.103 194.242 478.158 194.242 479.32H196.242ZM198.266 477.296C199.12 477.296 199.577 477.509 199.827 477.759C200.077 478.009 200.29 478.466 200.29 479.32H202.29C202.29 478.158 201.999 477.103 201.241 476.345C200.483 475.587 199.428 475.296 198.266 475.296V477.296ZM200.29 479.32V488.536H202.29V479.32H200.29ZM201.29 489.536H213.002V487.536H201.29V489.536ZM213.002 489.536C213.856 489.536 214.313 489.749 214.563 489.999C214.813 490.249 215.026 490.706 215.026 491.56H217.026C217.026 490.398 216.735 489.343 215.977 488.585C215.219 487.827 214.164 487.536 213.002 487.536V489.536ZM215.026 491.56C215.026 492.414 214.813 492.871 214.563 493.121C214.313 493.371 213.856 493.584 213.002 493.584V495.584C214.164 495.584 215.219 495.293 215.977 494.535C216.735 493.777 217.026 492.722 217.026 491.56H215.026ZM213.002 493.584H201.29V495.584H213.002V493.584ZM200.29 494.584V517.576H202.29V494.584H200.29ZM200.29 517.576C200.29 521.958 201.121 525.29 203.086 527.218L204.486 525.79C203.123 524.454 202.29 521.834 202.29 517.576H200.29ZM203.086 527.218C205.043 529.137 208.381 529.952 212.762 529.952V527.952C208.503 527.952 205.857 527.135 204.486 525.79L203.086 527.218ZM212.762 529.952C213.681 529.952 214.123 530.177 214.336 530.404L215.796 529.036C215.049 528.239 213.955 527.952 212.762 527.952V529.952ZM214.382 530.45C214.615 530.668 214.834 531.1 214.834 531.976H216.834C216.834 530.804 216.541 529.732 215.75 528.99L214.382 530.45ZM214.834 531.976C214.834 532.826 214.619 533.28 214.364 533.531C214.107 533.785 213.636 534 212.762 534V536C213.936 536 215.001 535.711 215.768 534.957C216.537 534.2 216.834 533.142 216.834 531.976H214.834ZM226.721 530.584L225.827 530.137L226.721 530.584ZM227.681 529L226.884 528.396L226.869 528.415L226.856 528.435L227.681 529ZM266.945 477.16H267.945V474.183L266.148 476.556L266.945 477.16ZM266.945 478.12V479.12H267.945V478.12H266.945ZM233.825 479.512L234.38 480.344L234.386 480.34L234.393 480.335L233.825 479.512ZM231.233 483.928L230.25 483.744L230.249 483.751L230.248 483.758L231.233 483.928ZM230.273 486.088L230.98 486.795L230.992 486.784L231.003 486.772L230.273 486.088ZM225.761 485.992L225.034 486.679L225.054 486.699L225.074 486.719L225.761 485.992ZM225.137 483.64L224.147 483.497L224.146 483.505L224.145 483.512L225.137 483.64ZM229.601 475.048L230.227 475.828L230.228 475.827L229.601 475.048ZM273.329 478.264L272.544 477.644L272.537 477.653L272.531 477.662L273.329 478.264ZM234.257 530.056H233.257V533.042L235.055 530.658L234.257 530.056ZM234.257 528.952V527.952H233.257V528.952H234.257ZM269.105 527.608L269.66 528.44L269.666 528.436L269.673 528.431L269.105 527.608ZM271.601 523.144L270.627 522.917L270.619 522.953L270.613 522.99L271.601 523.144ZM272.657 520.984L273.364 521.691L272.657 520.984ZM277.121 521.08L277.828 520.373L277.121 521.08ZM277.745 523.432L278.736 523.568L278.737 523.556L277.745 523.432ZM229.457 534C228.583 534 228.112 533.785 227.855 533.531C227.6 533.28 227.385 532.826 227.385 531.976H225.385C225.385 533.142 225.682 534.2 226.451 534.957C227.218 535.711 228.283 536 229.457 536V534ZM227.385 531.976C227.385 531.658 227.458 531.347 227.615 531.031L225.827 530.137C225.536 530.717 225.385 531.334 225.385 531.976H227.385ZM227.615 531.031C227.812 530.638 228.105 530.151 228.506 529.565L226.856 528.435C226.425 529.065 226.078 529.634 225.827 530.137L227.615 531.031ZM228.478 529.604L267.742 477.764L266.148 476.556L226.884 528.396L228.478 529.604ZM265.945 477.16V478.12H267.945V477.16H265.945ZM266.945 477.12H239.633V479.12H266.945V477.12ZM239.633 477.12C237.005 477.12 234.836 477.598 233.257 478.689L234.393 480.335C235.502 479.57 237.205 479.12 239.633 479.12V477.12ZM233.27 478.68C231.642 479.765 230.669 481.511 230.25 483.744L232.216 484.112C232.565 482.249 233.32 481.051 234.38 480.344L233.27 478.68ZM230.248 483.758C230.11 484.558 229.851 485.076 229.543 485.404L231.003 486.772C231.655 486.076 232.036 485.154 232.218 484.098L230.248 483.758ZM229.566 485.381C229.345 485.602 228.914 485.808 228.065 485.808V487.808C229.2 487.808 230.241 487.534 230.98 486.795L229.566 485.381ZM228.065 485.808C227.303 485.808 226.8 485.598 226.448 485.265L225.074 486.719C225.874 487.474 226.907 487.808 228.065 487.808V485.808ZM226.488 485.305C226.202 485.003 226.028 484.547 226.129 483.768L224.145 483.512C223.99 484.717 224.232 485.829 225.034 486.679L226.488 485.305ZM226.127 483.783C226.643 480.198 228.035 477.587 230.227 475.828L228.975 474.268C226.303 476.413 224.719 479.53 224.147 483.497L226.127 483.783ZM230.228 475.827C232.463 474.028 235.561 473.072 239.633 473.072V471.072C235.257 471.072 231.667 472.1 228.974 474.269L230.228 475.827ZM239.633 473.072H271.505V471.072H239.633V473.072ZM271.505 473.072C272.359 473.072 272.816 473.285 273.066 473.535C273.316 473.785 273.529 474.242 273.529 475.096H275.529C275.529 473.934 275.238 472.879 274.48 472.121C273.722 471.363 272.667 471.072 271.505 471.072V473.072ZM273.529 475.096C273.529 475.541 273.464 475.945 273.34 476.316L275.238 476.948C275.434 476.359 275.529 475.739 275.529 475.096H273.529ZM273.34 476.316C273.231 476.644 272.986 477.084 272.544 477.644L274.114 478.884C274.632 478.228 275.027 477.58 275.238 476.948L273.34 476.316ZM272.531 477.662L233.459 529.454L235.055 530.658L274.127 478.866L272.531 477.662ZM235.257 530.056V528.952H233.257V530.056H235.257ZM234.257 529.952H263.153V527.952H234.257V529.952ZM263.153 529.952C265.862 529.952 268.078 529.494 269.66 528.44L268.55 526.776C267.444 527.514 265.692 527.952 263.153 527.952V529.952ZM269.673 528.431C271.3 527.308 272.239 525.54 272.589 523.298L270.613 522.99C270.323 524.844 269.598 526.052 268.537 526.785L269.673 528.431ZM272.575 523.371C272.775 522.515 273.063 521.992 273.364 521.691L271.95 520.277C271.291 520.936 270.875 521.853 270.627 522.917L272.575 523.371ZM273.364 521.691C273.596 521.459 274.007 521.264 274.769 521.264V519.264C273.675 519.264 272.678 519.549 271.95 520.277L273.364 521.691ZM274.769 521.264C275.619 521.264 276.113 521.486 276.414 521.787L277.828 520.373C277.041 519.586 275.967 519.264 274.769 519.264V521.264ZM276.414 521.787C276.67 522.044 276.856 522.478 276.753 523.308L278.737 523.556C278.89 522.338 278.66 521.204 277.828 520.373L276.414 521.787ZM276.754 523.296C276.252 526.965 274.866 529.595 272.684 531.324C270.487 533.066 267.352 534 263.153 534V536C267.626 536 271.259 535.006 273.926 532.892C276.608 530.765 278.182 527.611 278.736 523.568L276.754 523.296ZM263.153 534H229.457V536H263.153V534ZM292.344 530.68L291.637 531.387L292.344 530.68ZM292.344 492.808L293.047 493.519L293.051 493.515L292.344 492.808ZM305.832 488.536L305.827 489.536H305.832V488.536ZM327.192 492.856L326.481 493.559L326.489 493.567L327.192 492.856ZM327.192 530.68L326.485 529.973L326.481 529.977L327.192 530.68ZM296.616 526.408L295.909 527.115L295.915 527.122L296.616 526.408ZM322.92 526.408L323.627 527.115L323.633 527.108L322.92 526.408ZM322.92 497.128L322.213 497.835L322.92 497.128ZM305.832 494.584L305.821 495.584H305.832V494.584ZM298.824 495.64L299.207 496.564L299.216 496.56L298.824 495.64ZM295.176 499.288L296.093 499.686L296.096 499.68L295.176 499.288ZM305.832 534C299.854 534 295.667 532.589 293.051 529.973L291.637 531.387C294.78 534.531 299.586 536 305.832 536V534ZM293.051 529.973C290.433 527.355 289.024 523.198 289.024 517.288H287.024C287.024 523.474 288.495 528.245 291.637 531.387L293.051 529.973ZM289.024 517.288V506.344H287.024V517.288H289.024ZM289.024 506.344C289.024 500.297 290.436 496.1 293.047 493.519L291.641 492.097C288.491 495.212 287.024 500.039 287.024 506.344H289.024ZM293.051 493.515C295.665 490.9 299.849 489.505 305.827 489.536L305.837 487.536C299.59 487.503 294.782 488.956 291.637 492.101L293.051 493.515ZM305.832 489.536H313.704V487.536H305.832V489.536ZM313.704 489.536C319.717 489.536 323.898 490.948 326.481 493.559L327.903 492.153C324.789 489.004 319.979 487.536 313.704 487.536V489.536ZM326.489 493.567C329.1 496.149 330.512 500.331 330.512 506.344H332.512C332.512 500.069 331.044 495.259 327.895 492.145L326.489 493.567ZM330.512 506.344V517.192H332.512V506.344H330.512ZM330.512 517.192C330.512 523.17 329.101 527.356 326.485 529.973L327.899 531.387C331.042 528.244 332.512 523.438 332.512 517.192H330.512ZM326.481 529.977C323.898 532.588 319.717 534 313.704 534V536C319.979 536 324.789 534.532 327.903 531.383L326.481 529.977ZM313.704 534H305.832V536H313.704V534ZM293.072 517.288C293.072 521.738 293.92 525.127 295.909 527.115L297.323 525.701C295.919 524.297 295.072 521.606 295.072 517.288H293.072ZM295.915 527.122C297.934 529.103 301.349 529.952 305.832 529.952V527.952C301.482 527.952 298.753 527.105 297.316 525.694L295.915 527.122ZM305.832 529.952H313.704V527.952H305.832V529.952ZM313.704 529.952C318.213 529.952 321.636 529.105 323.627 527.115L322.213 525.701C320.811 527.103 318.091 527.952 313.704 527.952V529.952ZM323.633 527.108C325.615 525.089 326.464 521.675 326.464 517.192H324.464C324.464 521.541 323.616 524.271 322.206 525.708L323.633 527.108ZM326.464 517.192V506.344H324.464V517.192H326.464ZM326.464 506.344C326.464 501.835 325.617 498.411 323.627 496.421L322.213 497.835C323.614 499.237 324.464 501.957 324.464 506.344H326.464ZM323.627 496.421C321.636 494.431 318.213 493.584 313.704 493.584V495.584C318.091 495.584 320.811 496.433 322.213 497.835L323.627 496.421ZM313.704 493.584H305.832V495.584H313.704V493.584ZM305.843 493.584C302.83 493.551 300.339 493.908 298.432 494.72L299.216 496.56C300.765 495.9 302.945 495.553 305.821 495.584L305.843 493.584ZM298.44 494.716C296.497 495.523 295.092 496.934 294.256 498.896L296.096 499.68C296.732 498.186 297.759 497.165 299.207 496.564L298.44 494.716ZM294.258 498.89C293.444 500.766 293.072 503.274 293.072 506.344H295.072C295.072 503.398 295.435 501.202 296.093 499.686L294.258 498.89ZM293.072 506.344V517.288H295.072V506.344H293.072ZM354.579 495.112H353.579V498.203L355.389 495.698L354.579 495.112ZM386.739 492.856L386.028 493.559L386.036 493.567L386.739 492.856ZM382.419 497.128L381.712 497.835L381.718 497.842L382.419 497.128ZM359.427 496.6L359.854 497.504L359.427 496.6ZM354.579 502.888L353.588 502.754L353.579 502.821V502.888H354.579ZM351.555 534C350.701 534 350.244 533.787 349.994 533.537C349.744 533.287 349.531 532.83 349.531 531.976H347.531C347.531 533.138 347.822 534.193 348.58 534.951C349.337 535.709 350.393 536 351.555 536V534ZM349.531 531.976V491.56H347.531V531.976H349.531ZM349.531 491.56C349.531 490.706 349.744 490.249 349.994 489.999C350.244 489.749 350.701 489.536 351.555 489.536V487.536C350.393 487.536 349.337 487.827 348.58 488.585C347.822 489.343 347.531 490.398 347.531 491.56H349.531ZM351.555 489.536C352.409 489.536 352.865 489.749 353.116 489.999C353.366 490.249 353.579 490.706 353.579 491.56H355.579C355.579 490.398 355.288 489.343 354.53 488.585C353.772 487.827 352.717 487.536 351.555 487.536V489.536ZM353.579 491.56V495.112H355.579V491.56H353.579ZM355.389 495.698C358.303 491.666 363.263 489.536 370.563 489.536V487.536C362.887 487.536 357.19 489.79 353.768 494.526L355.389 495.698ZM370.563 489.536H373.251V487.536H370.563V489.536ZM373.251 489.536C379.264 489.536 383.445 490.948 386.028 493.559L387.45 492.153C384.336 489.004 379.526 487.536 373.251 487.536V489.536ZM386.036 493.567C388.647 496.149 390.059 500.331 390.059 506.344H392.059C392.059 500.069 390.591 495.259 387.442 492.145L386.036 493.567ZM390.059 506.344V531.976H392.059V506.344H390.059ZM390.059 531.976C390.059 532.83 389.846 533.287 389.596 533.537C389.345 533.787 388.889 534 388.035 534V536C389.197 536 390.252 535.709 391.01 534.951C391.768 534.193 392.059 533.138 392.059 531.976H390.059ZM388.035 534C387.181 534 386.724 533.787 386.474 533.537C386.224 533.287 386.011 532.83 386.011 531.976H384.011C384.011 533.138 384.302 534.193 385.06 534.951C385.817 535.709 386.873 536 388.035 536V534ZM386.011 531.976V506.344H384.011V531.976H386.011ZM386.011 506.344C386.011 501.831 385.147 498.405 383.119 496.414L381.718 497.842C383.147 499.243 384.011 501.961 384.011 506.344H386.011ZM383.126 496.421C381.136 494.431 377.73 493.584 373.251 493.584V495.584C377.603 495.584 380.309 496.433 381.712 497.835L383.126 496.421ZM373.251 493.584H370.563V495.584H373.251V493.584ZM370.563 493.584C365.901 493.584 362.028 494.267 359 495.696L359.854 497.504C362.522 496.245 366.073 495.584 370.563 495.584V493.584ZM359 495.696C355.88 497.168 354.022 499.534 353.588 502.754L355.57 503.022C355.904 500.546 357.277 498.72 359.854 497.504L359 495.696ZM353.579 502.888V531.976H355.579V502.888H353.579ZM353.579 531.976C353.579 532.83 353.366 533.287 353.116 533.537C352.865 533.787 352.409 534 351.555 534V536C352.717 536 353.772 535.709 354.53 534.951C355.288 534.193 355.579 533.138 355.579 531.976H353.579ZM413.228 514.168V513.168H412.228V514.168H413.228ZM415.772 526.408L415.065 527.115L415.072 527.122L415.772 526.408ZM441.164 527.608L440.71 526.717L440.704 526.72L441.164 527.608ZM444.38 522.952L443.406 522.725L443.4 522.753L443.395 522.781L444.38 522.952ZM445.436 520.792L444.729 520.085L445.436 520.792ZM449.852 520.888L449.124 521.573L449.145 521.595L449.167 521.616L449.852 520.888ZM450.428 523.192L449.44 523.038L449.438 523.051L449.436 523.065L450.428 523.192ZM445.292 532.12L445.847 532.952L445.849 532.951L445.292 532.12ZM411.5 530.68L410.793 531.387L411.5 530.68ZM411.5 492.76L412.203 493.471L412.207 493.467L411.5 492.76ZM424.988 488.536L424.978 489.536H424.988V488.536ZM446.348 492.856L445.637 493.559L445.645 493.567L446.348 492.856ZM424.988 494.584L424.974 495.584L424.981 495.584H424.988V494.584ZM415.772 497.032L415.072 496.318L415.065 496.325L415.772 497.032ZM413.228 508.12H412.228V509.12H413.228V508.12ZM444.62 508.12V509.12H445.62V508.12H444.62ZM442.076 497.128L441.369 497.835L442.076 497.128ZM412.228 514.168V517.288H414.228V514.168H412.228ZM412.228 517.288C412.228 521.738 413.076 525.127 415.065 527.115L416.479 525.701C415.076 524.297 414.228 521.606 414.228 517.288H412.228ZM415.072 527.122C417.091 529.103 420.505 529.952 424.988 529.952V527.952C420.639 527.952 417.909 527.105 416.472 525.694L415.072 527.122ZM424.988 529.952H432.86V527.952H424.988V529.952ZM432.86 529.952C436.703 529.952 439.674 529.507 441.624 528.496L440.704 526.72C439.198 527.501 436.633 527.952 432.86 527.952V529.952ZM441.618 528.499C443.699 527.44 444.936 525.594 445.365 523.123L443.395 522.781C443.056 524.726 442.149 525.984 440.71 526.717L441.618 528.499ZM445.354 523.179C445.554 522.323 445.842 521.8 446.143 521.499L444.729 520.085C444.07 520.744 443.654 521.661 443.406 522.725L445.354 523.179ZM446.143 521.499C446.369 521.273 446.79 521.072 447.596 521.072V519.072C446.482 519.072 445.463 519.351 444.729 520.085L446.143 521.499ZM447.596 521.072C448.407 521.072 448.857 521.29 449.124 521.573L450.58 520.203C449.823 519.398 448.769 519.072 447.596 519.072V521.072ZM449.167 521.616C449.384 521.821 449.57 522.202 449.44 523.038L451.416 523.346C451.606 522.134 451.408 520.979 450.537 520.16L449.167 521.616ZM449.436 523.065C448.955 526.826 447.37 529.523 444.735 531.289L445.849 532.951C449.038 530.813 450.877 527.558 451.42 523.319L449.436 523.065ZM444.737 531.288C442.09 533.053 438.173 534 432.86 534V536C438.363 536 442.734 535.027 445.847 532.952L444.737 531.288ZM432.86 534H424.988V536H432.86V534ZM424.988 534C419.01 534 414.824 532.589 412.207 529.973L410.793 531.387C413.936 534.531 418.742 536 424.988 536V534ZM412.207 529.973C409.589 527.355 408.18 523.198 408.18 517.288H406.18C406.18 523.474 407.651 528.245 410.793 531.387L412.207 529.973ZM408.18 517.288V506.344H406.18V517.288H408.18ZM408.18 506.344C408.18 500.264 409.594 496.052 412.203 493.471L410.797 492.049C407.646 495.164 406.18 500.008 406.18 506.344H408.18ZM412.207 493.467C414.82 490.854 419.001 489.473 424.978 489.536L424.998 487.536C418.751 487.471 413.94 488.906 410.793 492.053L412.207 493.467ZM424.988 489.536H432.86V487.536H424.988V489.536ZM432.86 489.536C438.873 489.536 443.055 490.948 445.637 493.559L447.059 492.153C443.945 489.004 439.135 487.536 432.86 487.536V489.536ZM445.645 493.567C448.256 496.149 449.668 500.331 449.668 506.344H451.668C451.668 500.069 450.2 495.259 447.051 492.145L445.645 493.567ZM449.668 506.344V511.144H451.668V506.344H449.668ZM449.668 511.144C449.668 511.998 449.455 512.455 449.205 512.705C448.955 512.955 448.498 513.168 447.644 513.168V515.168C448.806 515.168 449.861 514.877 450.619 514.119C451.377 513.361 451.668 512.306 451.668 511.144H449.668ZM447.644 513.168H413.228V515.168H447.644V513.168ZM425.003 493.584C420.519 493.519 417.097 494.331 415.072 496.318L416.472 497.746C417.903 496.341 420.625 495.521 424.974 495.584L425.003 493.584ZM415.065 496.325C413.073 498.317 412.228 501.776 412.228 506.344H414.228C414.228 501.888 415.079 499.139 416.479 497.739L415.065 496.325ZM412.228 506.344V508.12H414.228V506.344H412.228ZM413.228 509.12H444.62V507.12H413.228V509.12ZM445.62 508.12V506.344H443.62V508.12H445.62ZM445.62 506.344C445.62 501.835 444.773 498.411 442.783 496.421L441.369 497.835C442.771 499.237 443.62 501.957 443.62 506.344H445.62ZM442.783 496.421C440.793 494.431 437.369 493.584 432.86 493.584V495.584C437.247 495.584 439.967 496.433 441.369 497.835L442.783 496.421ZM432.86 493.584H424.988V495.584H432.86V493.584Z" fill="white" mask="url(#path-11-outside-1_0_1)"/>
</g>
<g opacity="0.7" filter="url(#filter2_d_0_1)">
<path d="M147.16 292.441C155.115 267.409 187.676 261.202 204.282 281.551L219.921 300.716L234.794 314.846C256.431 335.403 241.906 371.841 212.06 371.874L195.845 371.892C191.937 371.897 188.061 372.594 184.396 373.952L172.495 378.361C144.564 388.71 118.266 359.741 131.261 332.938L139.017 316.94C139.708 315.514 140.296 314.04 140.776 312.53L147.16 292.441Z" fill="#D9D9D9"/>
<path d="M131.818 283.991C136.597 297.121 133.943 310.142 125.889 313.073C117.836 316.005 107.433 307.736 102.653 294.606C97.8743 281.475 100.529 268.454 108.582 265.523C116.636 262.592 127.039 270.86 131.818 283.991Z" fill="#D9D9D9"/>
<path d="M161.306 236.782C164.851 250.011 160.138 262.767 150.78 265.274C141.422 267.782 130.962 259.091 127.417 245.863C123.873 232.635 128.586 219.878 137.944 217.371C147.302 214.863 157.762 223.554 161.306 236.782Z" fill="#D9D9D9"/>
<path d="M249.423 263.245C249.423 277.219 242.476 288.546 233.905 288.546C225.335 288.546 218.387 277.219 218.387 263.245C218.387 249.272 225.335 237.944 233.905 237.944C242.476 237.944 249.423 249.272 249.423 263.245Z" fill="#D9D9D9"/>
<path d="M205.843 232.629C207.065 246.596 200.231 258.603 190.58 259.447C180.929 260.291 172.114 249.654 170.892 235.687C169.67 221.721 176.504 209.714 186.155 208.87C195.806 208.025 204.621 218.663 205.843 232.629Z" fill="#D9D9D9"/>
<path d="M310.136 167.034C329.541 149.333 360.843 160.238 365.049 186.164L369.011 210.581L374.826 230.254C383.287 258.875 352.488 283.169 326.624 268.275L312.573 260.183C309.186 258.233 305.48 256.899 301.628 256.243L289.117 254.111C259.753 249.107 251.463 210.871 276.118 194.156L290.834 184.179C292.146 183.29 293.392 182.308 294.562 181.24L310.136 167.034Z" fill="#D9D9D9"/>
<path d="M301.074 152.045C298.648 165.806 289.839 175.755 281.399 174.267C272.958 172.779 268.083 160.417 270.51 146.655C272.936 132.894 281.745 122.945 290.186 124.433C298.626 125.922 303.501 138.284 301.074 152.045Z" fill="#D9D9D9"/>
<path d="M350.216 125.905C346.672 139.133 336.212 147.824 326.854 145.317C317.496 142.809 312.783 130.053 316.328 116.825C319.872 103.596 330.332 94.9055 339.69 97.413C349.048 99.9205 353.761 112.677 350.216 125.905Z" fill="#D9D9D9"/>
<path d="M413.296 192.882C406.31 204.983 394.629 211.319 387.207 207.034C379.785 202.749 379.432 189.465 386.418 177.364C393.405 165.262 405.086 158.926 412.508 163.211C419.93 167.496 420.283 180.78 413.296 192.882Z" fill="#D9D9D9"/>
<path d="M390.863 144.577C384.937 157.284 373.016 164.265 364.236 160.171C355.455 156.076 353.14 142.456 359.065 129.75C364.991 117.044 376.912 110.062 385.692 114.157C394.473 118.251 396.788 131.871 390.863 144.577Z" fill="#D9D9D9"/>
</g>
<g filter="url(#filter3_di_0_1)">
<mask id="path-23-outside-2_0_1" maskUnits="userSpaceOnUse" x="81" y="471" width="371" height="65" fill="black">
<rect fill="white" x="81" y="471" width="371" height="65"/>
<path d="M85.961 535C83.945 535 82.937 533.992 82.937 531.976V475.096C82.937 473.08 83.945 472.072 85.961 472.072H108.425C114.025 472.072 118.281 473.528 121.193 476.44C124.105 479.352 125.561 483.608 125.561 489.208V492.088C125.561 497.656 124.105 501.912 121.193 504.856C118.281 507.768 114.025 509.224 108.425 509.224H88.985V531.976C88.985 533.992 87.977 535 85.961 535ZM88.985 503.176H108.425C112.361 503.176 115.193 502.312 116.921 500.584C118.649 498.824 119.513 495.992 119.513 492.088V489.208C119.513 485.304 118.649 482.488 116.921 480.76C115.193 479 112.361 478.12 108.425 478.12H88.985V503.176ZM140.978 514.168V517.288C140.978 521.672 141.826 524.712 143.522 526.408C145.25 528.104 148.322 528.952 152.738 528.952H160.61C164.418 528.952 167.186 528.504 168.914 527.608C170.674 526.712 171.746 525.16 172.13 522.952C172.354 521.992 172.706 521.272 173.186 520.792C173.666 520.312 174.386 520.072 175.346 520.072C176.338 520.072 177.09 520.344 177.602 520.888C178.146 521.4 178.338 522.168 178.178 523.192C177.666 527.192 175.954 530.168 173.042 532.12C170.162 534.04 166.018 535 160.61 535H152.738C146.626 535 142.13 533.56 139.25 530.68C136.37 527.8 134.93 523.336 134.93 517.288V506.344C134.93 500.136 136.37 495.608 139.25 492.76C142.13 489.88 146.626 488.472 152.738 488.536H160.61C166.754 488.536 171.25 489.976 174.098 492.856C176.978 495.704 178.418 500.2 178.418 506.344V511.144C178.418 513.16 177.41 514.168 175.394 514.168H140.978ZM152.738 494.584C148.322 494.52 145.25 495.336 143.522 497.032C141.826 498.728 140.978 501.832 140.978 506.344V508.12H172.37V506.344C172.37 501.896 171.522 498.824 169.826 497.128C168.13 495.432 165.058 494.584 160.61 494.584H152.738ZM212.762 535C206.714 535 202.282 533.592 199.466 530.776C196.65 527.96 195.242 523.56 195.242 517.576V494.584H189.866C187.85 494.584 186.842 493.576 186.842 491.56C186.842 489.544 187.85 488.536 189.866 488.536H195.242V479.32C195.242 477.304 196.25 476.296 198.266 476.296C200.282 476.296 201.29 477.304 201.29 479.32V488.536H213.002C215.018 488.536 216.026 489.544 216.026 491.56C216.026 493.576 215.018 494.584 213.002 494.584H201.29V517.576C201.29 521.896 202.122 524.872 203.786 526.504C205.45 528.136 208.442 528.952 212.762 528.952C213.818 528.952 214.586 529.208 215.066 529.72C215.578 530.2 215.834 530.952 215.834 531.976C215.834 533.992 214.81 535 212.762 535ZM229.457 535C227.409 535 226.385 533.992 226.385 531.976C226.385 531.496 226.497 531.032 226.721 530.584C226.945 530.136 227.265 529.608 227.681 529L266.945 477.16V478.12H239.633C237.105 478.12 235.169 478.584 233.825 479.512C232.481 480.408 231.617 481.88 231.233 483.928C231.073 484.856 230.753 485.576 230.273 486.088C229.793 486.568 229.057 486.808 228.065 486.808C227.105 486.808 226.337 486.536 225.761 485.992C225.217 485.416 225.009 484.632 225.137 483.64C225.681 479.864 227.169 477 229.601 475.048C232.065 473.064 235.409 472.072 239.633 472.072H271.505C273.521 472.072 274.529 473.08 274.529 475.096C274.529 475.64 274.449 476.152 274.289 476.632C274.129 477.112 273.809 477.656 273.329 478.264L234.257 530.056V528.952H263.153C265.777 528.952 267.761 528.504 269.105 527.608C270.449 526.68 271.281 525.192 271.601 523.144C271.825 522.184 272.177 521.464 272.657 520.984C273.137 520.504 273.841 520.264 274.769 520.264C275.793 520.264 276.577 520.536 277.121 521.08C277.665 521.624 277.873 522.408 277.745 523.432C276.689 531.144 271.825 535 263.153 535H229.457ZM305.832 535C299.72 535 295.224 533.56 292.344 530.68C289.464 527.8 288.024 523.336 288.024 517.288V506.344C288.024 500.168 289.464 495.656 292.344 492.808C295.224 489.928 299.72 488.504 305.832 488.536H313.704C319.848 488.536 324.344 489.976 327.192 492.856C330.072 495.704 331.512 500.2 331.512 506.344V517.192C331.512 523.304 330.072 527.8 327.192 530.68C324.344 533.56 319.848 535 313.704 535H305.832ZM294.072 517.288C294.072 521.672 294.92 524.712 296.616 526.408C298.344 528.104 301.416 528.952 305.832 528.952H313.704C318.152 528.952 321.224 528.104 322.92 526.408C324.616 524.68 325.464 521.608 325.464 517.192V506.344C325.464 501.896 324.616 498.824 322.92 497.128C321.224 495.432 318.152 494.584 313.704 494.584H305.832C302.888 494.552 300.552 494.904 298.824 495.64C297.128 496.344 295.912 497.56 295.176 499.288C294.44 500.984 294.072 503.336 294.072 506.344V517.288ZM351.555 535C349.539 535 348.531 533.992 348.531 531.976V491.56C348.531 489.544 349.539 488.536 351.555 488.536C353.571 488.536 354.579 489.544 354.579 491.56V495.112C357.747 490.728 363.075 488.536 370.563 488.536H373.251C379.395 488.536 383.891 489.976 386.739 492.856C389.619 495.704 391.059 500.2 391.059 506.344V531.976C391.059 533.992 390.051 535 388.035 535C386.019 535 385.011 533.992 385.011 531.976V506.344C385.011 501.896 384.147 498.824 382.419 497.128C380.723 495.432 377.667 494.584 373.251 494.584H370.563C365.987 494.584 362.275 495.256 359.427 496.6C356.579 497.944 354.963 500.04 354.579 502.888V531.976C354.579 533.992 353.571 535 351.555 535ZM413.228 514.168V517.288C413.228 521.672 414.076 524.712 415.772 526.408C417.5 528.104 420.572 528.952 424.988 528.952H432.86C436.668 528.952 439.436 528.504 441.164 527.608C442.924 526.712 443.996 525.16 444.38 522.952C444.604 521.992 444.956 521.272 445.436 520.792C445.916 520.312 446.636 520.072 447.596 520.072C448.588 520.072 449.34 520.344 449.852 520.888C450.396 521.4 450.588 522.168 450.428 523.192C449.916 527.192 448.204 530.168 445.292 532.12C442.412 534.04 438.268 535 432.86 535H424.988C418.876 535 414.38 533.56 411.5 530.68C408.62 527.8 407.18 523.336 407.18 517.288V506.344C407.18 500.136 408.62 495.608 411.5 492.76C414.38 489.88 418.876 488.472 424.988 488.536H432.86C439.004 488.536 443.5 489.976 446.348 492.856C449.228 495.704 450.668 500.2 450.668 506.344V511.144C450.668 513.16 449.66 514.168 447.644 514.168H413.228ZM424.988 494.584C420.572 494.52 417.5 495.336 415.772 497.032C414.076 498.728 413.228 501.832 413.228 506.344V508.12H444.62V506.344C444.62 501.896 443.772 498.824 442.076 497.128C440.38 495.432 437.308 494.584 432.86 494.584H424.988Z"/>
</mask>
<path d="M85.961 535C83.945 535 82.937 533.992 82.937 531.976V475.096C82.937 473.08 83.945 472.072 85.961 472.072H108.425C114.025 472.072 118.281 473.528 121.193 476.44C124.105 479.352 125.561 483.608 125.561 489.208V492.088C125.561 497.656 124.105 501.912 121.193 504.856C118.281 507.768 114.025 509.224 108.425 509.224H88.985V531.976C88.985 533.992 87.977 535 85.961 535ZM88.985 503.176H108.425C112.361 503.176 115.193 502.312 116.921 500.584C118.649 498.824 119.513 495.992 119.513 492.088V489.208C119.513 485.304 118.649 482.488 116.921 480.76C115.193 479 112.361 478.12 108.425 478.12H88.985V503.176ZM140.978 514.168V517.288C140.978 521.672 141.826 524.712 143.522 526.408C145.25 528.104 148.322 528.952 152.738 528.952H160.61C164.418 528.952 167.186 528.504 168.914 527.608C170.674 526.712 171.746 525.16 172.13 522.952C172.354 521.992 172.706 521.272 173.186 520.792C173.666 520.312 174.386 520.072 175.346 520.072C176.338 520.072 177.09 520.344 177.602 520.888C178.146 521.4 178.338 522.168 178.178 523.192C177.666 527.192 175.954 530.168 173.042 532.12C170.162 534.04 166.018 535 160.61 535H152.738C146.626 535 142.13 533.56 139.25 530.68C136.37 527.8 134.93 523.336 134.93 517.288V506.344C134.93 500.136 136.37 495.608 139.25 492.76C142.13 489.88 146.626 488.472 152.738 488.536H160.61C166.754 488.536 171.25 489.976 174.098 492.856C176.978 495.704 178.418 500.2 178.418 506.344V511.144C178.418 513.16 177.41 514.168 175.394 514.168H140.978ZM152.738 494.584C148.322 494.52 145.25 495.336 143.522 497.032C141.826 498.728 140.978 501.832 140.978 506.344V508.12H172.37V506.344C172.37 501.896 171.522 498.824 169.826 497.128C168.13 495.432 165.058 494.584 160.61 494.584H152.738ZM212.762 535C206.714 535 202.282 533.592 199.466 530.776C196.65 527.96 195.242 523.56 195.242 517.576V494.584H189.866C187.85 494.584 186.842 493.576 186.842 491.56C186.842 489.544 187.85 488.536 189.866 488.536H195.242V479.32C195.242 477.304 196.25 476.296 198.266 476.296C200.282 476.296 201.29 477.304 201.29 479.32V488.536H213.002C215.018 488.536 216.026 489.544 216.026 491.56C216.026 493.576 215.018 494.584 213.002 494.584H201.29V517.576C201.29 521.896 202.122 524.872 203.786 526.504C205.45 528.136 208.442 528.952 212.762 528.952C213.818 528.952 214.586 529.208 215.066 529.72C215.578 530.2 215.834 530.952 215.834 531.976C215.834 533.992 214.81 535 212.762 535ZM229.457 535C227.409 535 226.385 533.992 226.385 531.976C226.385 531.496 226.497 531.032 226.721 530.584C226.945 530.136 227.265 529.608 227.681 529L266.945 477.16V478.12H239.633C237.105 478.12 235.169 478.584 233.825 479.512C232.481 480.408 231.617 481.88 231.233 483.928C231.073 484.856 230.753 485.576 230.273 486.088C229.793 486.568 229.057 486.808 228.065 486.808C227.105 486.808 226.337 486.536 225.761 485.992C225.217 485.416 225.009 484.632 225.137 483.64C225.681 479.864 227.169 477 229.601 475.048C232.065 473.064 235.409 472.072 239.633 472.072H271.505C273.521 472.072 274.529 473.08 274.529 475.096C274.529 475.64 274.449 476.152 274.289 476.632C274.129 477.112 273.809 477.656 273.329 478.264L234.257 530.056V528.952H263.153C265.777 528.952 267.761 528.504 269.105 527.608C270.449 526.68 271.281 525.192 271.601 523.144C271.825 522.184 272.177 521.464 272.657 520.984C273.137 520.504 273.841 520.264 274.769 520.264C275.793 520.264 276.577 520.536 277.121 521.08C277.665 521.624 277.873 522.408 277.745 523.432C276.689 531.144 271.825 535 263.153 535H229.457ZM305.832 535C299.72 535 295.224 533.56 292.344 530.68C289.464 527.8 288.024 523.336 288.024 517.288V506.344C288.024 500.168 289.464 495.656 292.344 492.808C295.224 489.928 299.72 488.504 305.832 488.536H313.704C319.848 488.536 324.344 489.976 327.192 492.856C330.072 495.704 331.512 500.2 331.512 506.344V517.192C331.512 523.304 330.072 527.8 327.192 530.68C324.344 533.56 319.848 535 313.704 535H305.832ZM294.072 517.288C294.072 521.672 294.92 524.712 296.616 526.408C298.344 528.104 301.416 528.952 305.832 528.952H313.704C318.152 528.952 321.224 528.104 322.92 526.408C324.616 524.68 325.464 521.608 325.464 517.192V506.344C325.464 501.896 324.616 498.824 322.92 497.128C321.224 495.432 318.152 494.584 313.704 494.584H305.832C302.888 494.552 300.552 494.904 298.824 495.64C297.128 496.344 295.912 497.56 295.176 499.288C294.44 500.984 294.072 503.336 294.072 506.344V517.288ZM351.555 535C349.539 535 348.531 533.992 348.531 531.976V491.56C348.531 489.544 349.539 488.536 351.555 488.536C353.571 488.536 354.579 489.544 354.579 491.56V495.112C357.747 490.728 363.075 488.536 370.563 488.536H373.251C379.395 488.536 383.891 489.976 386.739 492.856C389.619 495.704 391.059 500.2 391.059 506.344V531.976C391.059 533.992 390.051 535 388.035 535C386.019 535 385.011 533.992 385.011 531.976V506.344C385.011 501.896 384.147 498.824 382.419 497.128C380.723 495.432 377.667 494.584 373.251 494.584H370.563C365.987 494.584 362.275 495.256 359.427 496.6C356.579 497.944 354.963 500.04 354.579 502.888V531.976C354.579 533.992 353.571 535 351.555 535ZM413.228 514.168V517.288C413.228 521.672 414.076 524.712 415.772 526.408C417.5 528.104 420.572 528.952 424.988 528.952H432.86C436.668 528.952 439.436 528.504 441.164 527.608C442.924 526.712 443.996 525.16 444.38 522.952C444.604 521.992 444.956 521.272 445.436 520.792C445.916 520.312 446.636 520.072 447.596 520.072C448.588 520.072 449.34 520.344 449.852 520.888C450.396 521.4 450.588 522.168 450.428 523.192C449.916 527.192 448.204 530.168 445.292 532.12C442.412 534.04 438.268 535 432.86 535H424.988C418.876 535 414.38 533.56 411.5 530.68C408.62 527.8 407.18 523.336 407.18 517.288V506.344C407.18 500.136 408.62 495.608 411.5 492.76C414.38 489.88 418.876 488.472 424.988 488.536H432.86C439.004 488.536 443.5 489.976 446.348 492.856C449.228 495.704 450.668 500.2 450.668 506.344V511.144C450.668 513.16 449.66 514.168 447.644 514.168H413.228ZM424.988 494.584C420.572 494.52 417.5 495.336 415.772 497.032C414.076 498.728 413.228 501.832 413.228 506.344V508.12H444.62V506.344C444.62 501.896 443.772 498.824 442.076 497.128C440.38 495.432 437.308 494.584 432.86 494.584H424.988Z" fill="#D9D9D9"/>
<path d="M121.193 476.44L120.486 477.147L120.486 477.147L121.193 476.44ZM121.193 504.856L121.9 505.563L121.904 505.559L121.193 504.856ZM88.985 509.224V508.224H87.985V509.224H88.985ZM88.985 503.176H87.985V504.176H88.985V503.176ZM116.921 500.584L117.628 501.291L117.635 501.285L116.921 500.584ZM116.921 480.76L116.207 481.461L116.214 481.467L116.921 480.76ZM88.985 478.12V477.12H87.985V478.12H88.985ZM85.961 534C85.1071 534 84.6504 533.787 84.4001 533.537C84.1498 533.287 83.937 532.83 83.937 531.976H81.937C81.937 533.138 82.2282 534.193 82.9859 534.951C83.7436 535.709 84.7989 536 85.961 536V534ZM83.937 531.976V475.096H81.937V531.976H83.937ZM83.937 475.096C83.937 474.242 84.1498 473.785 84.4001 473.535C84.6504 473.285 85.1071 473.072 85.961 473.072V471.072C84.7989 471.072 83.7436 471.363 82.9859 472.121C82.2282 472.879 81.937 473.934 81.937 475.096H83.937ZM85.961 473.072H108.425V471.072H85.961V473.072ZM108.425 473.072C113.858 473.072 117.821 474.482 120.486 477.147L121.9 475.733C118.741 472.574 114.192 471.072 108.425 471.072V473.072ZM120.486 477.147C123.151 479.812 124.561 483.775 124.561 489.208H126.561C126.561 483.441 125.059 478.892 121.9 475.733L120.486 477.147ZM124.561 489.208V492.088H126.561V489.208H124.561ZM124.561 492.088C124.561 497.486 123.152 501.453 120.482 504.153L121.904 505.559C125.058 502.371 126.561 497.826 126.561 492.088H124.561ZM120.486 504.149C117.821 506.814 113.858 508.224 108.425 508.224V510.224C114.192 510.224 118.741 508.722 121.9 505.563L120.486 504.149ZM108.425 508.224H88.985V510.224H108.425V508.224ZM87.985 509.224V531.976H89.985V509.224H87.985ZM87.985 531.976C87.985 532.83 87.7722 533.287 87.5219 533.537C87.2716 533.787 86.8149 534 85.961 534V536C87.1231 536 88.1784 535.709 88.9361 534.951C89.6938 534.193 89.985 533.138 89.985 531.976H87.985ZM88.985 504.176H108.425V502.176H88.985V504.176ZM108.425 504.176C112.471 504.176 115.626 503.294 117.628 501.291L116.214 499.877C114.76 501.33 112.251 502.176 108.425 502.176V504.176ZM117.635 501.285C119.628 499.254 120.513 496.107 120.513 492.088H118.513C118.513 495.877 117.67 498.394 116.207 499.883L117.635 501.285ZM120.513 492.088V489.208H118.513V492.088H120.513ZM120.513 489.208C120.513 485.191 119.629 482.054 117.628 480.053L116.214 481.467C117.669 482.922 118.513 485.417 118.513 489.208H120.513ZM117.635 480.059C115.633 478.02 112.475 477.12 108.425 477.12V479.12C112.247 479.12 114.753 479.98 116.207 481.461L117.635 480.059ZM108.425 477.12H88.985V479.12H108.425V477.12ZM87.985 478.12V503.176H89.985V478.12H87.985ZM140.978 514.168V513.168H139.978V514.168H140.978ZM143.522 526.408L142.815 527.115L142.822 527.122L143.522 526.408ZM168.914 527.608L168.46 526.717L168.454 526.72L168.914 527.608ZM172.13 522.952L171.156 522.725L171.15 522.753L171.145 522.781L172.13 522.952ZM173.186 520.792L172.479 520.085L172.479 520.085L173.186 520.792ZM177.602 520.888L176.874 521.573L176.895 521.595L176.917 521.616L177.602 520.888ZM178.178 523.192L177.19 523.038L177.188 523.051L177.186 523.065L178.178 523.192ZM173.042 532.12L173.597 532.952L173.599 532.951L173.042 532.12ZM139.25 530.68L138.543 531.387L138.543 531.387L139.25 530.68ZM139.25 492.76L139.953 493.471L139.957 493.467L139.25 492.76ZM152.738 488.536L152.728 489.536H152.738V488.536ZM174.098 492.856L173.387 493.559L173.395 493.567L174.098 492.856ZM152.738 494.584L152.724 495.584L152.731 495.584H152.738V494.584ZM143.522 497.032L142.822 496.318L142.815 496.325L143.522 497.032ZM140.978 508.12H139.978V509.12H140.978V508.12ZM172.37 508.12V509.12H173.37V508.12H172.37ZM169.826 497.128L169.119 497.835L169.119 497.835L169.826 497.128ZM139.978 514.168V517.288H141.978V514.168H139.978ZM139.978 517.288C139.978 521.738 140.826 525.127 142.815 527.115L144.229 525.701C142.826 524.297 141.978 521.606 141.978 517.288H139.978ZM142.822 527.122C144.841 529.103 148.255 529.952 152.738 529.952V527.952C148.389 527.952 145.659 527.105 144.222 525.694L142.822 527.122ZM152.738 529.952H160.61V527.952H152.738V529.952ZM160.61 529.952C164.453 529.952 167.424 529.507 169.374 528.496L168.454 526.72C166.948 527.501 164.383 527.952 160.61 527.952V529.952ZM169.368 528.499C171.449 527.44 172.686 525.594 173.115 523.123L171.145 522.781C170.806 524.726 169.899 525.984 168.46 526.717L169.368 528.499ZM173.104 523.179C173.304 522.323 173.592 521.8 173.893 521.499L172.479 520.085C171.82 520.744 171.404 521.661 171.156 522.725L173.104 523.179ZM173.893 521.499C174.119 521.273 174.54 521.072 175.346 521.072V519.072C174.232 519.072 173.213 519.351 172.479 520.085L173.893 521.499ZM175.346 521.072C176.157 521.072 176.607 521.29 176.874 521.573L178.33 520.203C177.573 519.398 176.519 519.072 175.346 519.072V521.072ZM176.917 521.616C177.134 521.821 177.32 522.202 177.19 523.038L179.166 523.346C179.356 522.134 179.158 520.979 178.287 520.16L176.917 521.616ZM177.186 523.065C176.705 526.826 175.12 529.523 172.485 531.289L173.599 532.951C176.788 530.813 178.627 527.558 179.17 523.319L177.186 523.065ZM172.487 531.288C169.84 533.053 165.923 534 160.61 534V536C166.113 536 170.484 535.027 173.597 532.952L172.487 531.288ZM160.61 534H152.738V536H160.61V534ZM152.738 534C146.76 534 142.574 532.589 139.957 529.973L138.543 531.387C141.686 534.531 146.492 536 152.738 536V534ZM139.957 529.973C137.339 527.355 135.93 523.198 135.93 517.288H133.93C133.93 523.474 135.401 528.245 138.543 531.387L139.957 529.973ZM135.93 517.288V506.344H133.93V517.288H135.93ZM135.93 506.344C135.93 500.263 137.344 496.052 139.953 493.471L138.547 492.049C135.396 495.164 133.93 500.009 133.93 506.344H135.93ZM139.957 493.467C142.57 490.854 146.751 489.473 152.728 489.536L152.748 487.536C146.501 487.471 141.69 488.906 138.543 492.053L139.957 493.467ZM152.738 489.536H160.61V487.536H152.738V489.536ZM160.61 489.536C166.623 489.536 170.805 490.948 173.387 493.559L174.809 492.153C171.695 489.004 166.885 487.536 160.61 487.536V489.536ZM173.395 493.567C176.006 496.149 177.418 500.331 177.418 506.344H179.418C179.418 500.069 177.95 495.259 174.801 492.145L173.395 493.567ZM177.418 506.344V511.144H179.418V506.344H177.418ZM177.418 511.144C177.418 511.998 177.205 512.455 176.955 512.705C176.705 512.955 176.248 513.168 175.394 513.168V515.168C176.556 515.168 177.611 514.877 178.369 514.119C179.127 513.361 179.418 512.306 179.418 511.144H177.418ZM175.394 513.168H140.978V515.168H175.394V513.168ZM152.752 493.584C148.269 493.519 144.847 494.331 142.822 496.318L144.222 497.746C145.653 496.341 148.375 495.521 152.724 495.584L152.752 493.584ZM142.815 496.325C140.823 498.317 139.978 501.776 139.978 506.344H141.978C141.978 501.888 142.829 499.139 144.229 497.739L142.815 496.325ZM139.978 506.344V508.12H141.978V506.344H139.978ZM140.978 509.12H172.37V507.12H140.978V509.12ZM173.37 508.12V506.344H171.37V508.12H173.37ZM173.37 506.344C173.37 501.835 172.523 498.411 170.533 496.421L169.119 497.835C170.521 499.237 171.37 501.957 171.37 506.344H173.37ZM170.533 496.421C168.543 494.431 165.119 493.584 160.61 493.584V495.584C164.997 495.584 167.717 496.433 169.119 497.835L170.533 496.421ZM160.61 493.584H152.738V495.584H160.61V493.584ZM199.466 530.776L198.759 531.483L198.759 531.483L199.466 530.776ZM195.242 494.584H196.242V493.584H195.242V494.584ZM195.242 488.536V489.536H196.242V488.536H195.242ZM201.29 488.536H200.29V489.536H201.29V488.536ZM201.29 494.584V493.584H200.29V494.584H201.29ZM203.786 526.504L203.086 527.218L203.086 527.218L203.786 526.504ZM215.066 529.72L214.336 530.404L214.359 530.427L214.382 530.45L215.066 529.72ZM212.762 534C206.844 534 202.724 532.62 200.173 530.069L198.759 531.483C201.84 534.564 206.584 536 212.762 536V534ZM200.173 530.069C197.621 527.517 196.242 523.426 196.242 517.576H194.242C194.242 523.694 195.679 528.403 198.759 531.483L200.173 530.069ZM196.242 517.576V494.584H194.242V517.576H196.242ZM195.242 493.584H189.866V495.584H195.242V493.584ZM189.866 493.584C189.012 493.584 188.555 493.371 188.305 493.121C188.055 492.871 187.842 492.414 187.842 491.56H185.842C185.842 492.722 186.133 493.777 186.891 494.535C187.649 495.293 188.704 495.584 189.866 495.584V493.584ZM187.842 491.56C187.842 490.706 188.055 490.249 188.305 489.999C188.555 489.749 189.012 489.536 189.866 489.536V487.536C188.704 487.536 187.649 487.827 186.891 488.585C186.133 489.343 185.842 490.398 185.842 491.56H187.842ZM189.866 489.536H195.242V487.536H189.866V489.536ZM196.242 488.536V479.32H194.242V488.536H196.242ZM196.242 479.32C196.242 478.466 196.455 478.009 196.705 477.759C196.955 477.509 197.412 477.296 198.266 477.296V475.296C197.104 475.296 196.049 475.587 195.291 476.345C194.533 477.103 194.242 478.158 194.242 479.32H196.242ZM198.266 477.296C199.12 477.296 199.577 477.509 199.827 477.759C200.077 478.009 200.29 478.466 200.29 479.32H202.29C202.29 478.158 201.999 477.103 201.241 476.345C200.483 475.587 199.428 475.296 198.266 475.296V477.296ZM200.29 479.32V488.536H202.29V479.32H200.29ZM201.29 489.536H213.002V487.536H201.29V489.536ZM213.002 489.536C213.856 489.536 214.313 489.749 214.563 489.999C214.813 490.249 215.026 490.706 215.026 491.56H217.026C217.026 490.398 216.735 489.343 215.977 488.585C215.219 487.827 214.164 487.536 213.002 487.536V489.536ZM215.026 491.56C215.026 492.414 214.813 492.871 214.563 493.121C214.313 493.371 213.856 493.584 213.002 493.584V495.584C214.164 495.584 215.219 495.293 215.977 494.535C216.735 493.777 217.026 492.722 217.026 491.56H215.026ZM213.002 493.584H201.29V495.584H213.002V493.584ZM200.29 494.584V517.576H202.29V494.584H200.29ZM200.29 517.576C200.29 521.958 201.121 525.29 203.086 527.218L204.486 525.79C203.123 524.454 202.29 521.834 202.29 517.576H200.29ZM203.086 527.218C205.043 529.137 208.381 529.952 212.762 529.952V527.952C208.503 527.952 205.857 527.135 204.486 525.79L203.086 527.218ZM212.762 529.952C213.681 529.952 214.123 530.177 214.336 530.404L215.796 529.036C215.049 528.239 213.955 527.952 212.762 527.952V529.952ZM214.382 530.45C214.615 530.668 214.834 531.1 214.834 531.976H216.834C216.834 530.804 216.541 529.732 215.75 528.99L214.382 530.45ZM214.834 531.976C214.834 532.826 214.619 533.28 214.364 533.531C214.107 533.785 213.636 534 212.762 534V536C213.936 536 215.001 535.711 215.768 534.957C216.537 534.2 216.834 533.142 216.834 531.976H214.834ZM226.721 530.584L225.827 530.137L225.827 530.137L226.721 530.584ZM227.681 529L226.884 528.396L226.869 528.415L226.856 528.435L227.681 529ZM266.945 477.16H267.945V474.183L266.148 476.556L266.945 477.16ZM266.945 478.12V479.12H267.945V478.12H266.945ZM233.825 479.512L234.38 480.344L234.386 480.34L234.393 480.335L233.825 479.512ZM231.233 483.928L230.25 483.744L230.249 483.751L230.248 483.758L231.233 483.928ZM230.273 486.088L230.98 486.795L230.992 486.784L231.003 486.772L230.273 486.088ZM225.761 485.992L225.034 486.679L225.054 486.699L225.074 486.719L225.761 485.992ZM225.137 483.64L224.147 483.497L224.146 483.505L224.145 483.512L225.137 483.64ZM229.601 475.048L230.227 475.828L230.228 475.827L229.601 475.048ZM273.329 478.264L272.544 477.644L272.537 477.653L272.531 477.662L273.329 478.264ZM234.257 530.056H233.257V533.042L235.055 530.658L234.257 530.056ZM234.257 528.952V527.952H233.257V528.952H234.257ZM269.105 527.608L269.66 528.44L269.666 528.436L269.673 528.431L269.105 527.608ZM271.601 523.144L270.627 522.917L270.619 522.953L270.613 522.99L271.601 523.144ZM272.657 520.984L273.364 521.691L273.364 521.691L272.657 520.984ZM277.121 521.08L277.828 520.373L277.828 520.373L277.121 521.08ZM277.745 523.432L278.736 523.568L278.737 523.556L277.745 523.432ZM229.457 534C228.583 534 228.112 533.785 227.855 533.531C227.6 533.28 227.385 532.826 227.385 531.976H225.385C225.385 533.142 225.682 534.2 226.451 534.957C227.218 535.711 228.283 536 229.457 536V534ZM227.385 531.976C227.385 531.658 227.458 531.347 227.615 531.031L225.827 530.137C225.536 530.717 225.385 531.334 225.385 531.976H227.385ZM227.615 531.031C227.812 530.638 228.105 530.151 228.506 529.565L226.856 528.435C226.425 529.065 226.078 529.634 225.827 530.137L227.615 531.031ZM228.478 529.604L267.742 477.764L266.148 476.556L226.884 528.396L228.478 529.604ZM265.945 477.16V478.12H267.945V477.16H265.945ZM266.945 477.12H239.633V479.12H266.945V477.12ZM239.633 477.12C237.005 477.12 234.836 477.598 233.257 478.689L234.393 480.335C235.502 479.57 237.205 479.12 239.633 479.12V477.12ZM233.27 478.68C231.642 479.765 230.669 481.511 230.25 483.744L232.216 484.112C232.565 482.249 233.32 481.051 234.38 480.344L233.27 478.68ZM230.248 483.758C230.11 484.558 229.851 485.076 229.543 485.404L231.003 486.772C231.655 486.076 232.036 485.154 232.218 484.098L230.248 483.758ZM229.566 485.381C229.345 485.602 228.914 485.808 228.065 485.808V487.808C229.2 487.808 230.241 487.534 230.98 486.795L229.566 485.381ZM228.065 485.808C227.303 485.808 226.8 485.598 226.448 485.265L225.074 486.719C225.874 487.474 226.907 487.808 228.065 487.808V485.808ZM226.488 485.305C226.202 485.003 226.028 484.547 226.129 483.768L224.145 483.512C223.99 484.717 224.232 485.829 225.034 486.679L226.488 485.305ZM226.127 483.783C226.643 480.198 228.035 477.587 230.227 475.828L228.975 474.268C226.303 476.413 224.719 479.53 224.147 483.497L226.127 483.783ZM230.228 475.827C232.463 474.028 235.561 473.072 239.633 473.072V471.072C235.257 471.072 231.667 472.1 228.974 474.269L230.228 475.827ZM239.633 473.072H271.505V471.072H239.633V473.072ZM271.505 473.072C272.359 473.072 272.816 473.285 273.066 473.535C273.316 473.785 273.529 474.242 273.529 475.096H275.529C275.529 473.934 275.238 472.879 274.48 472.121C273.722 471.363 272.667 471.072 271.505 471.072V473.072ZM273.529 475.096C273.529 475.541 273.464 475.945 273.34 476.316L275.238 476.948C275.434 476.359 275.529 475.739 275.529 475.096H273.529ZM273.34 476.316C273.231 476.644 272.986 477.084 272.544 477.644L274.114 478.884C274.632 478.228 275.027 477.58 275.238 476.948L273.34 476.316ZM272.531 477.662L233.459 529.454L235.055 530.658L274.127 478.866L272.531 477.662ZM235.257 530.056V528.952H233.257V530.056H235.257ZM234.257 529.952H263.153V527.952H234.257V529.952ZM263.153 529.952C265.862 529.952 268.078 529.494 269.66 528.44L268.55 526.776C267.444 527.514 265.692 527.952 263.153 527.952V529.952ZM269.673 528.431C271.3 527.308 272.239 525.54 272.589 523.298L270.613 522.99C270.323 524.844 269.598 526.052 268.537 526.785L269.673 528.431ZM272.575 523.371C272.775 522.515 273.063 521.992 273.364 521.691L271.95 520.277C271.291 520.936 270.875 521.853 270.627 522.917L272.575 523.371ZM273.364 521.691C273.596 521.459 274.007 521.264 274.769 521.264V519.264C273.675 519.264 272.678 519.549 271.95 520.277L273.364 521.691ZM274.769 521.264C275.619 521.264 276.113 521.486 276.414 521.787L277.828 520.373C277.041 519.586 275.967 519.264 274.769 519.264V521.264ZM276.414 521.787C276.67 522.044 276.856 522.478 276.753 523.308L278.737 523.556C278.89 522.338 278.66 521.204 277.828 520.373L276.414 521.787ZM276.754 523.296C276.252 526.965 274.866 529.595 272.684 531.324C270.487 533.066 267.352 534 263.153 534V536C267.626 536 271.259 535.006 273.926 532.892C276.608 530.765 278.182 527.611 278.736 523.568L276.754 523.296ZM263.153 534H229.457V536H263.153V534ZM292.344 530.68L291.637 531.387L291.637 531.387L292.344 530.68ZM292.344 492.808L293.047 493.519L293.051 493.515L292.344 492.808ZM305.832 488.536L305.827 489.536H305.832V488.536ZM327.192 492.856L326.481 493.559L326.489 493.567L327.192 492.856ZM327.192 530.68L326.485 529.973L326.481 529.977L327.192 530.68ZM296.616 526.408L295.909 527.115L295.915 527.122L296.616 526.408ZM322.92 526.408L323.627 527.115L323.633 527.108L322.92 526.408ZM322.92 497.128L322.213 497.835L322.213 497.835L322.92 497.128ZM305.832 494.584L305.821 495.584H305.832V494.584ZM298.824 495.64L299.207 496.564L299.216 496.56L298.824 495.64ZM295.176 499.288L296.093 499.686L296.096 499.68L295.176 499.288ZM305.832 534C299.854 534 295.667 532.589 293.051 529.973L291.637 531.387C294.78 534.531 299.586 536 305.832 536V534ZM293.051 529.973C290.433 527.355 289.024 523.198 289.024 517.288H287.024C287.024 523.474 288.495 528.245 291.637 531.387L293.051 529.973ZM289.024 517.288V506.344H287.024V517.288H289.024ZM289.024 506.344C289.024 500.297 290.436 496.1 293.047 493.519L291.641 492.097C288.491 495.212 287.024 500.039 287.024 506.344H289.024ZM293.051 493.515C295.665 490.9 299.849 489.505 305.827 489.536L305.837 487.536C299.59 487.503 294.782 488.956 291.637 492.101L293.051 493.515ZM305.832 489.536H313.704V487.536H305.832V489.536ZM313.704 489.536C319.717 489.536 323.898 490.948 326.481 493.559L327.903 492.153C324.789 489.004 319.979 487.536 313.704 487.536V489.536ZM326.489 493.567C329.1 496.149 330.512 500.331 330.512 506.344H332.512C332.512 500.069 331.044 495.259 327.895 492.145L326.489 493.567ZM330.512 506.344V517.192H332.512V506.344H330.512ZM330.512 517.192C330.512 523.17 329.101 527.356 326.485 529.973L327.899 531.387C331.042 528.244 332.512 523.438 332.512 517.192H330.512ZM326.481 529.977C323.898 532.588 319.717 534 313.704 534V536C319.979 536 324.789 534.532 327.903 531.383L326.481 529.977ZM313.704 534H305.832V536H313.704V534ZM293.072 517.288C293.072 521.738 293.92 525.127 295.909 527.115L297.323 525.701C295.919 524.297 295.072 521.606 295.072 517.288H293.072ZM295.915 527.122C297.934 529.103 301.349 529.952 305.832 529.952V527.952C301.482 527.952 298.753 527.105 297.316 525.694L295.915 527.122ZM305.832 529.952H313.704V527.952H305.832V529.952ZM313.704 529.952C318.213 529.952 321.636 529.105 323.627 527.115L322.213 525.701C320.811 527.103 318.091 527.952 313.704 527.952V529.952ZM323.633 527.108C325.615 525.089 326.464 521.675 326.464 517.192H324.464C324.464 521.541 323.616 524.271 322.206 525.708L323.633 527.108ZM326.464 517.192V506.344H324.464V517.192H326.464ZM326.464 506.344C326.464 501.835 325.617 498.411 323.627 496.421L322.213 497.835C323.614 499.237 324.464 501.957 324.464 506.344H326.464ZM323.627 496.421C321.636 494.431 318.213 493.584 313.704 493.584V495.584C318.091 495.584 320.811 496.433 322.213 497.835L323.627 496.421ZM313.704 493.584H305.832V495.584H313.704V493.584ZM305.843 493.584C302.83 493.551 300.339 493.908 298.432 494.72L299.216 496.56C300.765 495.9 302.945 495.553 305.821 495.584L305.843 493.584ZM298.44 494.716C296.497 495.523 295.092 496.934 294.256 498.896L296.096 499.68C296.732 498.186 297.759 497.165 299.207 496.564L298.44 494.716ZM294.258 498.89C293.444 500.766 293.072 503.274 293.072 506.344H295.072C295.072 503.398 295.435 501.202 296.093 499.686L294.258 498.89ZM293.072 506.344V517.288H295.072V506.344H293.072ZM354.579 495.112H353.579V498.203L355.389 495.698L354.579 495.112ZM386.739 492.856L386.028 493.559L386.036 493.567L386.739 492.856ZM382.419 497.128L381.712 497.835L381.718 497.842L382.419 497.128ZM359.427 496.6L359.854 497.504L359.854 497.504L359.427 496.6ZM354.579 502.888L353.588 502.754L353.579 502.821V502.888H354.579ZM351.555 534C350.701 534 350.244 533.787 349.994 533.537C349.744 533.287 349.531 532.83 349.531 531.976H347.531C347.531 533.138 347.822 534.193 348.58 534.951C349.337 535.709 350.393 536 351.555 536V534ZM349.531 531.976V491.56H347.531V531.976H349.531ZM349.531 491.56C349.531 490.706 349.744 490.249 349.994 489.999C350.244 489.749 350.701 489.536 351.555 489.536V487.536C350.393 487.536 349.337 487.827 348.58 488.585C347.822 489.343 347.531 490.398 347.531 491.56H349.531ZM351.555 489.536C352.409 489.536 352.865 489.749 353.116 489.999C353.366 490.249 353.579 490.706 353.579 491.56H355.579C355.579 490.398 355.288 489.343 354.53 488.585C353.772 487.827 352.717 487.536 351.555 487.536V489.536ZM353.579 491.56V495.112H355.579V491.56H353.579ZM355.389 495.698C358.303 491.666 363.263 489.536 370.563 489.536V487.536C362.887 487.536 357.19 489.79 353.768 494.526L355.389 495.698ZM370.563 489.536H373.251V487.536H370.563V489.536ZM373.251 489.536C379.264 489.536 383.445 490.948 386.028 493.559L387.45 492.153C384.336 489.004 379.526 487.536 373.251 487.536V489.536ZM386.036 493.567C388.647 496.149 390.059 500.331 390.059 506.344H392.059C392.059 500.069 390.591 495.259 387.442 492.145L386.036 493.567ZM390.059 506.344V531.976H392.059V506.344H390.059ZM390.059 531.976C390.059 532.83 389.846 533.287 389.596 533.537C389.345 533.787 388.889 534 388.035 534V536C389.197 536 390.252 535.709 391.01 534.951C391.768 534.193 392.059 533.138 392.059 531.976H390.059ZM388.035 534C387.181 534 386.724 533.787 386.474 533.537C386.224 533.287 386.011 532.83 386.011 531.976H384.011C384.011 533.138 384.302 534.193 385.06 534.951C385.817 535.709 386.873 536 388.035 536V534ZM386.011 531.976V506.344H384.011V531.976H386.011ZM386.011 506.344C386.011 501.831 385.147 498.405 383.119 496.414L381.718 497.842C383.147 499.243 384.011 501.961 384.011 506.344H386.011ZM383.126 496.421C381.136 494.431 377.73 493.584 373.251 493.584V495.584C377.603 495.584 380.309 496.433 381.712 497.835L383.126 496.421ZM373.251 493.584H370.563V495.584H373.251V493.584ZM370.563 493.584C365.901 493.584 362.028 494.267 359 495.696L359.854 497.504C362.522 496.245 366.073 495.584 370.563 495.584V493.584ZM359 495.696C355.88 497.168 354.022 499.534 353.588 502.754L355.57 503.022C355.904 500.546 357.277 498.72 359.854 497.504L359 495.696ZM353.579 502.888V531.976H355.579V502.888H353.579ZM353.579 531.976C353.579 532.83 353.366 533.287 353.116 533.537C352.865 533.787 352.409 534 351.555 534V536C352.717 536 353.772 535.709 354.53 534.951C355.288 534.193 355.579 533.138 355.579 531.976H353.579ZM413.228 514.168V513.168H412.228V514.168H413.228ZM415.772 526.408L415.065 527.115L415.072 527.122L415.772 526.408ZM441.164 527.608L440.71 526.717L440.704 526.72L441.164 527.608ZM444.38 522.952L443.406 522.725L443.4 522.753L443.395 522.781L444.38 522.952ZM445.436 520.792L444.729 520.085L444.729 520.085L445.436 520.792ZM449.852 520.888L449.124 521.573L449.145 521.595L449.167 521.616L449.852 520.888ZM450.428 523.192L449.44 523.038L449.438 523.051L449.436 523.065L450.428 523.192ZM445.292 532.12L445.847 532.952L445.849 532.951L445.292 532.12ZM411.5 530.68L410.793 531.387L410.793 531.387L411.5 530.68ZM411.5 492.76L412.203 493.471L412.207 493.467L411.5 492.76ZM424.988 488.536L424.978 489.536H424.988V488.536ZM446.348 492.856L445.637 493.559L445.645 493.567L446.348 492.856ZM424.988 494.584L424.974 495.584L424.981 495.584H424.988V494.584ZM415.772 497.032L415.072 496.318L415.065 496.325L415.772 497.032ZM413.228 508.12H412.228V509.12H413.228V508.12ZM444.62 508.12V509.12H445.62V508.12H444.62ZM442.076 497.128L441.369 497.835L441.369 497.835L442.076 497.128ZM412.228 514.168V517.288H414.228V514.168H412.228ZM412.228 517.288C412.228 521.738 413.076 525.127 415.065 527.115L416.479 525.701C415.076 524.297 414.228 521.606 414.228 517.288H412.228ZM415.072 527.122C417.091 529.103 420.505 529.952 424.988 529.952V527.952C420.639 527.952 417.909 527.105 416.472 525.694L415.072 527.122ZM424.988 529.952H432.86V527.952H424.988V529.952ZM432.86 529.952C436.703 529.952 439.674 529.507 441.624 528.496L440.704 526.72C439.198 527.501 436.633 527.952 432.86 527.952V529.952ZM441.618 528.499C443.699 527.44 444.936 525.594 445.365 523.123L443.395 522.781C443.056 524.726 442.149 525.984 440.71 526.717L441.618 528.499ZM445.354 523.179C445.554 522.323 445.842 521.8 446.143 521.499L444.729 520.085C444.07 520.744 443.654 521.661 443.406 522.725L445.354 523.179ZM446.143 521.499C446.369 521.273 446.79 521.072 447.596 521.072V519.072C446.482 519.072 445.463 519.351 444.729 520.085L446.143 521.499ZM447.596 521.072C448.407 521.072 448.857 521.29 449.124 521.573L450.58 520.203C449.823 519.398 448.769 519.072 447.596 519.072V521.072ZM449.167 521.616C449.384 521.821 449.57 522.202 449.44 523.038L451.416 523.346C451.606 522.134 451.408 520.979 450.537 520.16L449.167 521.616ZM449.436 523.065C448.955 526.826 447.37 529.523 444.735 531.289L445.849 532.951C449.038 530.813 450.877 527.558 451.42 523.319L449.436 523.065ZM444.737 531.288C442.09 533.053 438.173 534 432.86 534V536C438.363 536 442.734 535.027 445.847 532.952L444.737 531.288ZM432.86 534H424.988V536H432.86V534ZM424.988 534C419.01 534 414.824 532.589 412.207 529.973L410.793 531.387C413.936 534.531 418.742 536 424.988 536V534ZM412.207 529.973C409.589 527.355 408.18 523.198 408.18 517.288H406.18C406.18 523.474 407.651 528.245 410.793 531.387L412.207 529.973ZM408.18 517.288V506.344H406.18V517.288H408.18ZM408.18 506.344C408.18 500.263 409.594 496.052 412.203 493.471L410.797 492.049C407.646 495.164 406.18 500.009 406.18 506.344H408.18ZM412.207 493.467C414.82 490.854 419.001 489.473 424.978 489.536L424.998 487.536C418.751 487.471 413.94 488.906 410.793 492.053L412.207 493.467ZM424.988 489.536H432.86V487.536H424.988V489.536ZM432.86 489.536C438.873 489.536 443.055 490.948 445.637 493.559L447.059 492.153C443.945 489.004 439.135 487.536 432.86 487.536V489.536ZM445.645 493.567C448.256 496.149 449.668 500.331 449.668 506.344H451.668C451.668 500.069 450.2 495.259 447.051 492.145L445.645 493.567ZM449.668 506.344V511.144H451.668V506.344H449.668ZM449.668 511.144C449.668 511.998 449.455 512.455 449.205 512.705C448.955 512.955 448.498 513.168 447.644 513.168V515.168C448.806 515.168 449.861 514.877 450.619 514.119C451.377 513.361 451.668 512.306 451.668 511.144H449.668ZM447.644 513.168H413.228V515.168H447.644V513.168ZM425.002 493.584C420.519 493.519 417.097 494.331 415.072 496.318L416.472 497.746C417.903 496.341 420.625 495.521 424.974 495.584L425.002 493.584ZM415.065 496.325C413.073 498.317 412.228 501.776 412.228 506.344H414.228C414.228 501.888 415.079 499.139 416.479 497.739L415.065 496.325ZM412.228 506.344V508.12H414.228V506.344H412.228ZM413.228 509.12H444.62V507.12H413.228V509.12ZM445.62 508.12V506.344H443.62V508.12H445.62ZM445.62 506.344C445.62 501.835 444.773 498.411 442.783 496.421L441.369 497.835C442.771 499.237 443.62 501.957 443.62 506.344H445.62ZM442.783 496.421C440.793 494.431 437.369 493.584 432.86 493.584V495.584C437.247 495.584 439.967 496.433 441.369 497.835L442.783 496.421ZM432.86 493.584H424.988V495.584H432.86V493.584Z" fill="white" mask="url(#path-23-outside-2_0_1)"/>
</g>
<defs>
<filter id="filter0_d_0_1" x="0.276521" y="0.982178" width="518.037" height="483.528" filterUnits="userSpaceOnUse" color-interpolation-filters="sRGB">
<feFlood flood-opacity="0" result="BackgroundImageFix"/>
<feColorMatrix in="SourceAlpha" type="matrix" values="0 0 0 0 0 0 0 0 0 0 0 0 0 0 0 0 0 0 127 0" result="hardAlpha"/>
<feOffset dy="4"/>
<feGaussianBlur stdDeviation="50"/>
<feComposite in2="hardAlpha" operator="out"/>
<feColorMatrix type="matrix" values="0 0 0 0 0 0 0 0 0 0 0 0 0 0 0 0 0 0 0.25 0"/>
<feBlend mode="normal" in2="BackgroundImageFix" result="effect1_dropShadow_0_1"/>
<feBlend mode="normal" in="SourceGraphic" in2="effect1_dropShadow_0_1" result="shape"/>
</filter>
<filter id="filter1_di_0_1" x="78.937" y="472.072" width="375.731" height="70.928" filterUnits="userSpaceOnUse" color-interpolation-filters="sRGB">
<feFlood flood-opacity="0" result="BackgroundImageFix"/>
<feColorMatrix in="SourceAlpha" type="matrix" values="0 0 0 0 0 0 0 0 0 0 0 0 0 0 0 0 0 0 127 0" result="hardAlpha"/>
<feOffset dy="4"/>
<feGaussianBlur stdDeviation="2"/>
<feComposite in2="hardAlpha" operator="out"/>
<feColorMatrix type="matrix" values="0 0 0 0 0 0 0 0 0 0 0 0 0 0 0 0 0 0 0.25 0"/>
<feBlend mode="normal" in2="BackgroundImageFix" result="effect1_dropShadow_0_1"/>
<feBlend mode="normal" in="SourceGraphic" in2="effect1_dropShadow_0_1" result="shape"/>
<feColorMatrix in="SourceAlpha" type="matrix" values="0 0 0 0 0 0 0 0 0 0 0 0 0 0 0 0 0 0 127 0" result="hardAlpha"/>
<feOffset dy="4"/>
<feGaussianBlur stdDeviation="5"/>
<feComposite in2="hardAlpha" operator="arithmetic" k2="-1" k3="1"/>
<feColorMatrix type="matrix" values="0 0 0 0 0 0 0 0 0 0 0 0 0 0 0 0 0 0 0.25 0"/>
<feBlend mode="normal" in2="shape" result="effect2_innerShadow_0_1"/>
</filter>
<filter id="filter2_d_0_1" x="0.276521" y="0.982178" width="518.037" height="483.528" filterUnits="userSpaceOnUse" color-interpolation-filters="sRGB">
<feFlood flood-opacity="0" result="BackgroundImageFix"/>
<feColorMatrix in="SourceAlpha" type="matrix" values="0 0 0 0 0 0 0 0 0 0 0 0 0 0 0 0 0 0 127 0" result="hardAlpha"/>
<feOffset dy="4"/>
<feGaussianBlur stdDeviation="50"/>
<feComposite in2="hardAlpha" operator="out"/>
<feColorMatrix type="matrix" values="0 0 0 0 0 0 0 0 0 0 0 0 0 0 0 0 0 0 0.25 0"/>
<feBlend mode="normal" in2="BackgroundImageFix" result="effect1_dropShadow_0_1"/>
<feBlend mode="normal" in="SourceGraphic" in2="effect1_dropShadow_0_1" result="shape"/>
</filter>
<filter id="filter3_di_0_1" x="78.937" y="472.072" width="375.731" height="70.928" filterUnits="userSpaceOnUse" color-interpolation-filters="sRGB">
<feFlood flood-opacity="0" result="BackgroundImageFix"/>
<feColorMatrix in="SourceAlpha" type="matrix" values="0 0 0 0 0 0 0 0 0 0 0 0 0 0 0 0 0 0 127 0" result="hardAlpha"/>
<feOffset dy="4"/>
<feGaussianBlur stdDeviation="2"/>
<feComposite in2="hardAlpha" operator="out"/>
<feColorMatrix type="matrix" values="0 0 0 0 0 0 0 0 0 0 0 0 0 0 0 0 0 0 0.25 0"/>
<feBlend mode="normal" in2="BackgroundImageFix" result="effect1_dropShadow_0_1"/>
<feBlend mode="normal" in="SourceGraphic" in2="effect1_dropShadow_0_1" result="shape"/>
<feColorMatrix in="SourceAlpha" type="matrix" values="0 0 0 0 0 0 0 0 0 0 0 0 0 0 0 0 0 0 127 0" result="hardAlpha"/>
<feOffset dy="4"/>
<feGaussianBlur stdDeviation="5"/>
<feComposite in2="hardAlpha" operator="arithmetic" k2="-1" k3="1"/>
<feColorMatrix type="matrix" values="0 0 0 0 0 0 0 0 0 0 0 0 0 0 0 0 0 0 0.25 0"/>
<feBlend mode="normal" in2="shape" result="effect2_innerShadow_0_1"/>
</filter>
</defs>
</svg>
