<svg xmlns="http://www.w3.org/2000/svg" width="35" height="31" viewBox="0 0 35 31" fill="none">
  <path d="M14.8955 25.5732L23.29 17.1787C23.7822 16.6865 24.0625 16.0098 24.0625 15.3125C24.0625 14.6152 23.7822 13.9385 23.29 13.4463L14.8955 5.05176C14.458 4.61426 13.8701 4.375 13.2549 4.375C11.9766 4.375 10.9375 5.41406 10.9375 6.69238V10.9375H2.1875C0.977539 10.9375 0 11.915 0 13.125V17.5C0 18.71 0.977539 19.6875 2.1875 19.6875H10.9375V23.9326C10.9375 25.2109 11.9766 26.25 13.2549 26.25C13.8701 26.25 14.458 26.0039 14.8955 25.5732ZM24.0625 4.375H28.4375C29.6475 4.375 30.625 5.35254 30.625 6.5625V24.0625C30.625 25.2725 29.6475 26.25 28.4375 26.25H24.0625C22.8525 26.25 21.875 27.2275 21.875 28.4375C21.875 29.6475 22.8525 30.625 24.0625 30.625H28.4375C32.0605 30.625 35 27.6855 35 24.0625V6.5625C35 2.93945 32.0605 0 28.4375 0H24.0625C22.8525 0 21.875 0.977539 21.875 2.1875C21.875 3.39746 22.8525 4.375 24.0625 4.375Z" fill="black" fill-opacity="0.58"/>
</svg>