<svg xmlns="http://www.w3.org/2000/svg" width="44" height="43" viewBox="0 0 44 43" fill="none">
  <g clip-path="url(#clip0_1_126)">
    <path d="M19.8993 10.1108C21.1003 13.7137 19.8741 17.3502 17.1614 18.2405C14.4487 19.1307 11.2741 16.9303 10.0732 13.3274C8.87219 9.72444 10.0984 6.08792 12.8111 5.19769C15.5237 4.30745 18.6984 6.50784 19.8993 10.1108ZM9.30891 18.9879C10.8962 21.709 10.5099 24.8752 8.45226 26.051C6.39465 27.2268 3.4384 25.9754 1.85949 23.2543C0.280585 20.5332 0.650116 17.367 2.70773 16.1912C4.76535 15.0155 7.7216 16.2668 9.30051 18.9879H9.30891ZM6.68859 36.0032C11.0894 24.1362 18.9083 21.1211 22.3769 21.1211C25.8454 21.1211 33.6644 24.1362 38.0652 36.0032C38.3675 36.8178 38.5019 37.6912 38.5019 38.5647V38.699C38.5019 40.8658 36.7466 42.6211 34.5798 42.6211C33.614 42.6211 32.6566 42.5035 31.7243 42.2684L24.3337 40.4207C23.0487 40.1016 21.705 40.1016 20.42 40.4207L13.0294 42.2684C12.0972 42.5035 11.1398 42.6211 10.1739 42.6211C8.00715 42.6211 6.25187 40.8658 6.25187 38.699V38.5647C6.25187 37.6912 6.38625 36.8178 6.68859 36.0032ZM36.3015 26.051C34.2439 24.8752 33.8575 21.709 35.4448 18.9879C37.0321 16.2668 39.98 15.0155 42.0376 16.1912C44.0952 17.367 44.4816 20.5332 42.8943 23.2543C41.3069 25.9754 38.3591 27.2268 36.3015 26.051ZM26.9204 18.2405C24.2077 17.3502 22.9816 13.7137 24.1825 10.1108C25.3835 6.50784 28.5581 4.30745 31.2708 5.19769C33.9835 6.08792 35.2097 9.72444 34.0087 13.3274C32.8077 16.9303 29.6331 19.1307 26.9204 18.2405Z" fill="#4E4E58"/>
  </g>
  <defs>
    <clipPath id="clip0_1_126">
      <rect width="43" height="43" fill="white" transform="translate(0.881836)"/>
    </clipPath>
  </defs>
</svg>