<svg xmlns="http://www.w3.org/2000/svg" width="29" height="28" viewBox="0 0 29 28" fill="none">
  <g clip-path="url(#clip0_1_128)">
    <path d="M23.6318 11.375C23.6318 13.8852 22.817 16.2039 21.4443 18.0852L28.3678 25.0141C29.0514 25.6977 29.0514 26.8078 28.3678 27.4914C27.6842 28.175 26.574 28.175 25.8904 27.4914L18.967 20.5625C17.0857 21.9406 14.767 22.75 12.2568 22.75C5.97324 22.75 0.881836 17.6586 0.881836 11.375C0.881836 5.09141 5.97324 0 12.2568 0C18.5404 0 23.6318 5.09141 23.6318 11.375ZM12.2568 19.25C13.291 19.25 14.315 19.0463 15.2705 18.6506C16.2259 18.2548 17.094 17.6747 17.8253 16.9435C18.5566 16.2122 19.1366 15.3441 19.5324 14.3886C19.9281 13.4332 20.1318 12.4092 20.1318 11.375C20.1318 10.3408 19.9281 9.31681 19.5324 8.36137C19.1366 7.40593 18.5566 6.5378 17.8253 5.80653C17.094 5.07527 16.2259 4.4952 15.2705 4.09945C14.315 3.70369 13.291 3.5 12.2568 3.5C11.2227 3.5 10.1986 3.70369 9.2432 4.09945C8.28777 4.4952 7.41963 5.07527 6.68837 5.80653C5.95711 6.5378 5.37704 7.40593 4.98128 8.36137C4.58553 9.31681 4.38184 10.3408 4.38184 11.375C4.38184 12.4092 4.58553 13.4332 4.98128 14.3886C5.37704 15.3441 5.95711 16.2122 6.68837 16.9435C7.41963 17.6747 8.28777 18.2548 9.2432 18.6506C10.1986 19.0463 11.2227 19.25 12.2568 19.25Z" fill="#4E4E58"/>
  </g>
  <defs>
    <clipPath id="clip0_1_128">
      <rect width="28" height="28" fill="white" transform="translate(0.881836)"/>
    </clipPath>
  </defs>
</svg>